<svg width="502" height="370" viewBox="0 0 502 370" fill="none" xmlns="http://www.w3.org/2000/svg">
<path d="M451.474 344.692H418.238V344.943H451.474V344.692Z" fill="#EBEBEB"/>
<path d="M332.379 347.421H323.658V347.672H332.379V347.421Z" fill="#EBEBEB"/>
<path d="M417.235 335.379H397.978V335.63H417.235V335.379Z" fill="#EBEBEB"/>
<path d="M95.9847 337.065H52.6436V337.316H95.9847V337.065Z" fill="#EBEBEB"/>
<path d="M111.278 337.065H104.926V337.316H111.278V337.065Z" fill="#EBEBEB"/>
<path d="M225.938 341.3H131.93V341.551H225.938V341.3Z" fill="#EBEBEB"/>
<path d="M237.829 283.789H44.0736C42.5539 283.789 41.0965 283.186 40.0219 282.111C38.9473 281.037 38.3436 279.579 38.3436 278.059V5.6798C38.3569 4.16883 38.9664 2.72425 40.0395 1.66049C41.1127 0.596743 42.5626 -5.79279e-05 44.0736 4.21725e-09H237.829C239.349 4.21727e-09 240.806 0.603693 241.881 1.67827C242.955 2.75285 243.559 4.21029 243.559 5.72998V278.059C243.559 279.579 242.955 281.037 241.881 282.111C240.806 283.186 239.349 283.789 237.829 283.789V283.789ZM44.0736 0.200701C42.6213 0.203353 41.2292 0.781465 40.2022 1.80842C39.1753 2.83538 38.5972 4.22747 38.5945 5.6798V278.059C38.5972 279.512 39.1753 280.904 40.2022 281.931C41.2292 282.958 42.6213 283.536 44.0736 283.539H237.829C239.281 283.536 240.674 282.958 241.701 281.931C242.727 280.904 243.306 279.512 243.308 278.059V5.6798C243.306 4.22747 242.727 2.83538 241.701 1.80842C240.674 0.781465 239.281 0.203353 237.829 0.200701H44.0736Z" fill="#EBEBEB"/>
<path d="M454.896 283.789H261.12C259.601 283.787 258.146 283.182 257.072 282.108C255.998 281.034 255.393 279.578 255.39 278.059V5.6798C255.406 4.16965 256.017 2.72658 257.089 1.66339C258.162 0.600201 259.61 0.00255721 261.12 0H454.896C456.404 0.00522271 457.848 0.604356 458.917 1.66754C459.986 2.73073 460.593 4.1723 460.606 5.6798V278.059C460.606 279.576 460.005 281.03 458.935 282.104C457.864 283.178 456.412 283.784 454.896 283.789V283.789ZM261.12 0.200701C259.668 0.203353 258.276 0.781465 257.249 1.80842C256.222 2.83538 255.644 4.22747 255.641 5.6798V278.059C255.644 279.512 256.222 280.904 257.249 281.931C258.276 282.958 259.668 283.536 261.12 283.539H454.896C456.348 283.536 457.74 282.958 458.767 281.931C459.794 280.904 460.372 279.512 460.375 278.059V5.6798C460.372 4.22747 459.794 2.83538 458.767 1.80842C457.74 0.781465 456.348 0.203353 454.896 0.200701H261.12Z" fill="#EBEBEB"/>
<path d="M501.749 328.545H0V328.796H501.749V328.545Z" fill="#EBEBEB"/>
<path d="M430.28 86.1503V92.1713C434.065 92.4972 437.652 94.0029 440.536 96.4763L444.821 92.1913C440.785 88.6093 435.666 86.4825 430.28 86.1503V86.1503Z" fill="#F0F0F0"/>
<path d="M427.35 128.358C423.061 128.01 419.036 126.148 415.994 123.106C412.951 120.063 411.09 116.038 410.742 111.75H404.721C405.065 117.648 407.557 123.215 411.726 127.401C415.896 131.587 421.453 134.101 427.35 134.469V128.358Z" fill="#E6E6E6"/>
<path d="M410.742 108.829C411.092 104.54 412.953 100.515 415.995 97.4714C419.037 94.4277 423.061 92.5635 427.35 92.2114V86.1904C421.454 86.5519 415.895 89.0576 411.719 93.2352C407.543 97.4128 405.04 102.974 404.681 108.87L410.742 108.829Z" fill="#EBEBEB"/>
<path d="M446.918 94.2586L442.633 98.5435C444.797 101.085 446.217 104.175 446.736 107.472C447.256 110.769 446.855 114.146 445.577 117.229C444.299 120.313 442.195 122.984 439.496 124.947C436.797 126.911 433.607 128.091 430.28 128.357V134.378C434.801 134.102 439.153 132.562 442.841 129.932C446.529 127.302 449.404 123.69 451.138 119.506C452.872 115.322 453.396 110.735 452.65 106.267C451.904 101.8 449.918 97.632 446.918 94.2385V94.2586Z" fill="#E0E0E0"/>
<path d="M246.73 99.0956H251.186C251.918 99.0956 252.619 99.3863 253.137 99.9039C253.655 100.421 253.945 101.123 253.945 101.855V231.397H243.96V101.855C243.96 101.492 244.032 101.132 244.171 100.797C244.311 100.461 244.515 100.157 244.772 99.9003C245.03 99.6439 245.335 99.4409 245.671 99.3028C246.007 99.1647 246.367 99.0943 246.73 99.0956Z" fill="#E6E6E6"/>
<path d="M249.801 99.0956H247.051C246.233 99.0956 245.449 99.4198 244.869 99.9973C244.29 100.575 243.963 101.358 243.96 102.176V231.397H246.71V102.176C246.713 101.358 247.04 100.575 247.619 99.9973C248.198 99.4198 248.983 99.0956 249.801 99.0956Z" fill="#F0F0F0"/>
<path d="M256.845 222.857H241.131V328.796H256.845V222.857Z" fill="#EBEBEB"/>
<path d="M235.541 324.512H262.435C263.452 324.512 264.427 324.915 265.146 325.634C265.865 326.353 266.268 327.328 266.268 328.345V328.787H231.708V328.345C231.708 327.328 232.112 326.353 232.831 325.634C233.55 324.915 234.525 324.512 235.541 324.512V324.512Z" fill="#E6E6E6"/>
<path d="M397.807 276.464H423.145C425.329 276.461 427.423 275.592 428.968 274.048C430.512 272.503 431.381 270.409 431.384 268.225V231.176C431.384 230.777 431.225 230.394 430.943 230.112C430.661 229.829 430.278 229.671 429.879 229.671C429.479 229.671 429.097 229.829 428.814 230.112C428.532 230.394 428.373 230.777 428.373 231.176V268.225C428.373 269.612 427.823 270.942 426.842 271.922C425.862 272.902 424.532 273.453 423.145 273.453H397.807V276.464Z" fill="#E0E0E0"/>
<path d="M390.562 311.968V277.467L388.555 276.835C387.444 276.486 386.474 275.791 385.785 274.853C385.096 273.915 384.723 272.781 384.721 271.617H403.838C403.838 272.782 403.466 273.916 402.777 274.854C402.087 275.793 401.116 276.487 400.005 276.835L397.998 277.467V311.968L413.863 319.113V322.123L394.265 315.269L374.666 322.123V319.113L390.562 311.968Z" fill="#E0E0E0"/>
<path d="M369.288 273.454H419.272C419.985 273.454 420.691 273.313 421.349 273.04C422.008 272.767 422.607 272.368 423.111 271.863C423.615 271.359 424.015 270.761 424.288 270.102C424.56 269.443 424.701 268.738 424.701 268.025C424.698 266.586 424.125 265.208 423.107 264.192C422.089 263.176 420.71 262.606 419.272 262.606H369.288C367.85 262.606 366.472 263.177 365.456 264.193C364.44 265.209 363.869 266.587 363.869 268.025C363.867 268.737 364.007 269.443 364.278 270.101C364.55 270.76 364.949 271.359 365.452 271.863C365.956 272.367 366.553 272.767 367.211 273.04C367.87 273.313 368.575 273.454 369.288 273.454Z" fill="#F0F0F0"/>
<path d="M428.073 244.211L430.772 205.637C430.871 204.206 430.399 202.793 429.458 201.71C428.518 200.626 427.186 199.96 425.754 199.857V199.857C424.321 199.755 422.906 200.226 421.821 201.167C420.735 202.108 420.067 203.441 419.964 204.874L417.265 243.449C417.165 244.881 417.638 246.295 418.578 247.38C419.518 248.465 420.85 249.134 422.282 249.239C423.716 249.338 425.131 248.865 426.217 247.922C427.302 246.98 427.97 245.645 428.073 244.211V244.211Z" fill="#EBEBEB"/>
<path d="M410.431 324.24C410.431 324.919 410.632 325.583 411.01 326.147C411.387 326.712 411.923 327.151 412.55 327.411C413.177 327.671 413.867 327.739 414.533 327.606C415.198 327.474 415.81 327.147 416.29 326.667C416.77 326.187 417.097 325.576 417.229 324.91C417.362 324.244 417.294 323.554 417.034 322.927C416.774 322.3 416.334 321.764 415.77 321.387C415.205 321.01 414.542 320.808 413.863 320.808C413.412 320.808 412.966 320.897 412.55 321.07C412.133 321.242 411.755 321.495 411.436 321.814C411.118 322.132 410.865 322.511 410.692 322.927C410.52 323.343 410.431 323.79 410.431 324.24Z" fill="#E0E0E0"/>
<path d="M371.234 324.24C371.234 324.919 371.436 325.583 371.813 326.147C372.19 326.712 372.726 327.151 373.353 327.411C373.98 327.671 374.67 327.739 375.336 327.606C376.002 327.474 376.613 327.147 377.093 326.667C377.573 326.187 377.9 325.576 378.032 324.91C378.165 324.244 378.097 323.554 377.837 322.927C377.577 322.3 377.137 321.764 376.573 321.387C376.009 321.01 375.345 320.808 374.666 320.808C373.756 320.808 372.883 321.17 372.24 321.814C371.596 322.457 371.234 323.33 371.234 324.24Z" fill="#E0E0E0"/>
<path d="M100.721 276.464H75.3829C73.1969 276.464 71.1004 275.596 69.5537 274.051C68.007 272.507 67.1368 270.411 67.1342 268.225V231.176C67.1342 230.777 67.2927 230.394 67.575 230.112C67.8573 229.829 68.2402 229.671 68.6394 229.671C69.0386 229.671 69.4215 229.829 69.7038 230.112C69.9861 230.394 70.1447 230.777 70.1447 231.176V268.225C70.1473 269.613 70.7004 270.942 71.6824 271.923C72.6645 272.903 73.9954 273.453 75.3829 273.453H100.721V276.464Z" fill="#E0E0E0"/>
<path d="M107.966 311.968V277.467L109.973 276.835C111.083 276.485 112.052 275.79 112.739 274.852C113.427 273.914 113.797 272.78 113.797 271.617H94.7301C94.7318 272.781 95.1043 273.915 95.7936 274.853C96.4828 275.791 97.453 276.486 98.5635 276.835L100.57 277.467V311.968L84.665 319.113V322.123L104.263 315.269L123.862 322.123V319.113L107.966 311.968Z" fill="#E0E0E0"/>
<path d="M129.251 273.454H79.2764C77.8383 273.451 76.46 272.878 75.4441 271.86C74.4281 270.842 73.8575 269.463 73.8575 268.025C73.8575 266.587 74.4285 265.209 75.4447 264.193C76.4609 263.177 77.8393 262.606 79.2764 262.606H129.251C130.689 262.606 132.068 263.176 133.086 264.192C134.104 265.208 134.677 266.586 134.68 268.025C134.68 269.464 134.108 270.845 133.09 271.863C132.071 272.882 130.691 273.454 129.251 273.454Z" fill="#F0F0F0"/>
<path d="M70.4456 244.211L67.7462 205.637C67.6468 204.206 68.1193 202.793 69.0599 201.71C70.0005 200.626 71.3325 199.96 72.7637 199.857V199.857C74.1968 199.755 75.6118 200.226 76.6976 201.167C77.7834 202.108 78.4511 203.441 78.5538 204.874L81.2834 243.459C81.3828 244.891 80.9107 246.305 79.9703 247.39C79.0299 248.475 77.6979 249.144 76.2659 249.249V249.249C75.5525 249.302 74.8357 249.214 74.1566 248.99C73.4775 248.765 72.8494 248.408 72.3086 247.94C71.7677 247.472 71.3247 246.902 71.005 246.262C70.6853 245.622 70.4952 244.925 70.4456 244.211V244.211Z" fill="#EBEBEB"/>
<path d="M88.0871 324.24C88.0871 324.92 87.8855 325.584 87.508 326.148C87.1304 326.713 86.5938 327.153 85.9661 327.412C85.3384 327.672 84.6479 327.739 83.9819 327.606C83.3159 327.472 82.7044 327.145 82.2248 326.664C81.7452 326.183 81.4192 325.57 81.2879 324.904C81.1566 324.237 81.226 323.547 81.4873 322.92C81.7486 322.293 82.19 321.758 82.7557 321.382C83.3214 321.006 83.9859 320.807 84.6651 320.808C85.1154 320.808 85.5612 320.897 85.977 321.07C86.3928 321.243 86.7705 321.495 87.0884 321.814C87.4063 322.133 87.6581 322.512 87.8295 322.928C88.0009 323.344 88.0884 323.79 88.0871 324.24V324.24Z" fill="#E0E0E0"/>
<path d="M127.284 324.24C127.284 324.92 127.082 325.584 126.705 326.148C126.327 326.713 125.79 327.153 125.163 327.412C124.535 327.672 123.845 327.739 123.179 327.606C122.513 327.472 121.901 327.145 121.421 326.664C120.942 326.183 120.616 325.57 120.485 324.904C120.353 324.237 120.423 323.547 120.684 322.92C120.945 322.293 121.387 321.758 121.952 321.382C122.518 321.006 123.183 320.807 123.862 320.808C124.312 320.808 124.758 320.897 125.174 321.07C125.589 321.243 125.967 321.495 126.285 321.814C126.603 322.133 126.855 322.512 127.026 322.928C127.198 323.344 127.285 323.79 127.284 324.24V324.24Z" fill="#E0E0E0"/>
<path d="M208.407 328.796H188.838L186.831 291.687H210.414L208.407 328.796Z" fill="#EBEBEB"/>
<path d="M193.354 328.796H185.326V327.141L193.354 326.137V328.796Z" fill="#E0E0E0"/>
<path d="M189.812 288.676H207.433C208.232 288.676 208.997 288.993 209.562 289.558C210.127 290.123 210.444 290.888 210.444 291.687V291.687H186.821C186.821 290.888 187.139 290.123 187.703 289.558C188.268 288.993 189.033 288.676 189.832 288.676H189.812Z" fill="#E0E0E0"/>
<path d="M168.267 232.551H136.937V228.798L168.267 226.791V232.551Z" fill="#E0E0E0"/>
<path d="M214.588 236.374H121.935V249.199H214.588V236.374Z" fill="#F0F0F0"/>
<path d="M233.795 232.551H103.059V240.198H233.795V232.551Z" fill="#FAFAFA"/>
<path d="M221.653 328.796H227.553L217.338 240.198H210.414L221.653 328.796Z" fill="#E6E6E6"/>
<path d="M126.441 240.198H119.517L109.291 328.796H115.202L126.441 240.198Z" fill="#E6E6E6"/>
<path d="M199.987 230.644C197.311 217.358 194.635 204.065 191.959 190.765C191.578 188.869 188.668 189.671 189.049 191.568L196.686 229.54H180.128C179.729 229.54 179.346 229.699 179.063 229.981C178.781 230.263 178.623 230.646 178.623 231.046C178.623 231.445 178.781 231.828 179.063 232.11C179.346 232.392 179.729 232.551 180.128 232.551H198.522C198.754 232.549 198.982 232.494 199.19 232.391C199.397 232.288 199.578 232.139 199.72 231.955C199.861 231.771 199.958 231.558 200.005 231.33C200.051 231.103 200.045 230.869 199.987 230.644V230.644Z" fill="#E0E0E0"/>
<path d="M181.242 219.947L186.4 146.21C188.305 147.569 189.828 149.395 190.825 151.512C191.821 153.63 192.257 155.968 192.09 158.302L188.567 208.728C188.41 211.069 187.654 213.33 186.371 215.295C185.088 217.259 183.322 218.861 181.242 219.947Z" fill="#FAFAFA"/>
<path d="M221.432 211.116H213.043C211.435 211.116 210.133 212.419 210.133 214.026V229.641C210.133 231.248 211.435 232.551 213.043 232.551H221.432C223.039 232.551 224.342 231.248 224.342 229.641V214.026C224.342 212.419 223.039 211.116 221.432 211.116Z" fill="#F5F5F5"/>
<path d="M215.752 203.138C213.535 203.138 211.738 203.69 211.738 204.362C211.738 205.035 213.545 204.122 215.752 204.122C216.036 204.106 216.321 204.106 216.605 204.122V208.979H217.87V204.312C219.014 204.523 219.776 204.754 219.776 204.312C219.766 203.71 217.97 203.138 215.752 203.138Z" fill="#E0E0E0"/>
<path d="M219.505 207.453H214.979V211.979H219.505V207.453Z" fill="#F0F0F0"/>
<path d="M283.94 249.209H376.593V236.384H283.94V249.209Z" fill="#F0F0F0"/>
<path d="M264.733 240.207L395.469 240.207V232.561L264.733 232.561V240.207Z" fill="#FAFAFA"/>
<path d="M276.875 328.796H270.965L281.18 240.198H288.104L276.875 328.796Z" fill="#E6E6E6"/>
<path d="M372.087 240.198H379.012L389.227 328.796H383.317L372.087 240.198Z" fill="#E6E6E6"/>
<path d="M349.85 232.551H381.169V228.798L349.85 226.791V232.551Z" fill="#263238"/>
<path opacity="0.6" d="M349.85 232.551H381.169V228.798L349.85 226.791V232.551Z" fill="white"/>
<path d="M286.84 165.246V232.551H291.195L292.199 226.58C292.381 225.523 292.931 224.564 293.752 223.874C294.573 223.183 295.612 222.805 296.684 222.807H337.176C338.248 222.805 339.287 223.183 340.108 223.874C340.929 224.564 341.479 225.523 341.661 226.58L342.665 232.551H347.01V165.246H286.84Z" fill="#FAFAFA"/>
<path d="M306.318 230.644C308.994 217.358 311.67 204.065 314.346 190.765C314.727 188.869 317.627 189.671 317.246 191.568L309.599 229.54H326.137C326.536 229.54 326.919 229.699 327.201 229.981C327.484 230.263 327.642 230.646 327.642 231.046C327.642 231.445 327.484 231.828 327.201 232.11C326.919 232.392 326.536 232.551 326.137 232.551H307.763C307.533 232.546 307.307 232.489 307.102 232.385C306.897 232.28 306.718 232.131 306.579 231.947C306.44 231.764 306.344 231.551 306.299 231.326C306.254 231.1 306.26 230.867 306.318 230.644V230.644Z" fill="#E0E0E0"/>
<path d="M325.053 219.947L319.895 146.21C317.993 147.571 316.471 149.397 315.474 151.514C314.478 153.631 314.041 155.968 314.206 158.302L317.728 208.728C317.887 211.068 318.644 213.329 319.926 215.293C321.209 217.257 322.974 218.86 325.053 219.947V219.947Z" fill="#E0E0E0"/>
<path d="M246.349 19.9196H240.298V51.5097L246.349 51.4896V19.9196Z" fill="#EBEBEB"/>
<path d="M228.507 26.4725V51.4696C228.729 51.51 228.954 51.5302 229.179 51.5299H234.558V26.4424L228.507 26.4725Z" fill="#E6E6E6"/>
<path d="M264.783 16.6379V51.4593H270.182C270.4 51.4552 270.618 51.435 270.834 51.3991V16.6379H264.783Z" fill="#F0F0F0"/>
<path d="M258.742 32.9148H252.691V51.4795L258.742 51.4695V32.9148Z" fill="#E0E0E0"/>
<path d="M72.0712 85.9297V109.903L80.9622 132.171C85.9064 129.918 89.9498 126.069 92.4426 121.241C94.9354 116.414 95.733 110.888 94.7071 105.553C93.6812 100.217 90.8915 95.3816 86.7861 91.8226C82.6808 88.2637 77.4982 86.1882 72.0712 85.9297V85.9297Z" fill="#E0E0E0"/>
<path d="M69.974 109.602V85.9297C63.9455 86.2159 58.2585 88.8112 54.0921 93.1775C49.9256 97.5439 47.5995 103.346 47.596 109.381C47.596 109.676 47.596 109.967 47.596 110.254C47.596 110.556 47.596 110.847 47.596 111.148C47.5928 114.892 48.4855 118.583 50.1995 121.912C51.9136 125.241 54.3992 128.112 57.4489 130.284C60.4986 132.457 64.0239 133.868 67.7303 134.401C71.4367 134.933 75.2166 134.571 78.7546 133.345L69.974 109.602Z" fill="#F0F0F0"/>
<path d="M246.038 370C353.495 370 440.606 364.914 440.606 358.64C440.606 352.367 353.495 347.281 246.038 347.281C138.581 347.281 51.4695 352.367 51.4695 358.64C51.4695 364.914 138.581 370 246.038 370Z" fill="#F5F5F5"/>
<path d="M225.466 353.352L244.252 334.566L263.037 353.352C263.523 353.834 264.179 354.105 264.864 354.105C265.374 354.106 265.874 353.955 266.299 353.672C266.724 353.388 267.056 352.985 267.251 352.513C267.447 352.041 267.498 351.522 267.398 351.021C267.298 350.52 267.052 350.06 266.69 349.699L244.252 327.261L221.773 349.699C221.412 350.06 221.165 350.52 221.065 351.021C220.965 351.522 221.016 352.041 221.212 352.513C221.408 352.985 221.739 353.388 222.164 353.672C222.589 353.955 223.089 354.106 223.6 354.105C223.945 354.11 224.289 354.046 224.609 353.917C224.93 353.788 225.221 353.596 225.466 353.352V353.352Z" fill="#576E97"/>
<path opacity="0.2" d="M244.884 327.903H243.619L237.859 333.653V340.688H238.13L244.251 334.566L250.373 340.688H250.644V333.653L244.884 327.903Z" fill="black"/>
<path d="M240.408 269.309H248.095V351.094C248.095 351.892 247.778 352.658 247.213 353.223C246.649 353.787 245.883 354.104 245.085 354.104H243.419C242.62 354.104 241.855 353.787 241.29 353.223C240.725 352.658 240.408 351.892 240.408 351.094V269.309Z" fill="#576E97"/>
<path opacity="0.2" d="M248.095 269.309H240.408V299.444H248.095V269.309Z" fill="black"/>
<path d="M381.069 288.636H107.435C104.733 288.631 102.144 287.555 100.235 285.644C98.3253 283.733 97.2517 281.142 97.249 278.441V66.1608H391.274V278.441C391.272 281.146 390.195 283.739 388.281 285.651C386.368 287.563 383.774 288.636 381.069 288.636V288.636ZM100.691 69.6028V278.441C100.691 280.23 101.401 281.947 102.666 283.213C103.93 284.479 105.645 285.192 107.435 285.194H381.069C382.858 285.192 384.573 284.479 385.838 283.213C387.102 281.947 387.812 280.23 387.812 278.441V69.6028H100.691Z" fill="#576E97"/>
<g opacity="0.8">
<path d="M381.069 288.636H107.435C104.733 288.631 102.144 287.555 100.235 285.644C98.3253 283.733 97.2517 281.142 97.249 278.441V66.1608H391.274V278.441C391.272 281.146 390.195 283.739 388.281 285.651C386.368 287.563 383.774 288.636 381.069 288.636V288.636ZM100.691 69.6028V278.441C100.691 280.23 101.401 281.947 102.666 283.213C103.93 284.479 105.645 285.192 107.435 285.194H381.069C382.858 285.192 384.573 284.479 385.838 283.213C387.102 281.947 387.812 280.23 387.812 278.441V69.6028H100.691Z" fill="white"/>
</g>
<path d="M100.691 69.6025V278.441C100.691 280.23 101.401 281.946 102.666 283.213C103.93 284.479 105.645 285.192 107.435 285.194H381.069C382.858 285.192 384.573 284.479 385.838 283.213C387.102 281.946 387.812 280.23 387.812 278.441V69.6025H100.691Z" fill="white"/>
<path d="M397.897 64.0132H90.606V71.7602H397.897V64.0132Z" fill="#576E97"/>
<path opacity="0.5" d="M397.897 64.0132H90.606V67.8867H397.897V64.0132Z" fill="white"/>
<path d="M127.986 248.165C127.986 248.165 299.233 244.974 351.977 95.7339L350.161 248.507L127.986 248.165Z" fill="#576E97"/>
<g opacity="0.7">
<path d="M127.986 248.165C127.986 248.165 299.233 244.974 351.977 95.7339L350.161 248.507L127.986 248.165Z" fill="white"/>
</g>
<path d="M129.311 249.028C129.045 249.035 128.787 248.935 128.594 248.752C128.401 248.568 128.289 248.316 128.282 248.05C128.276 247.784 128.375 247.526 128.558 247.333C128.742 247.14 128.995 247.028 129.261 247.021C137.57 246.63 181.352 243.629 228.497 223.078C288.707 196.806 329.77 153.836 350.442 95.3323C350.545 95.1035 350.731 94.9217 350.961 94.8229C351.192 94.7241 351.452 94.7154 351.689 94.7986C351.926 94.8818 352.123 95.0508 352.241 95.2722C352.36 95.4936 352.391 95.7514 352.328 95.9946C340.939 128.257 323.056 156.205 299.143 179.114C279.695 197.769 256.183 213.173 229.259 224.914C181.794 245.616 137.68 248.637 129.321 248.998L129.311 249.028Z" fill="#576E97"/>
<path d="M138.242 258.421C137.976 258.421 137.721 258.315 137.532 258.127C137.344 257.939 137.239 257.684 137.239 257.418V249.078C137.239 248.812 137.344 248.557 137.532 248.369C137.721 248.181 137.976 248.075 138.242 248.075C138.508 248.075 138.763 248.181 138.952 248.369C139.14 248.557 139.246 248.812 139.246 249.078V257.418C139.246 257.684 139.14 257.939 138.952 258.127C138.763 258.315 138.508 258.421 138.242 258.421Z" fill="#576E97"/>
<path d="M173.073 258.461C172.807 258.461 172.552 258.355 172.364 258.167C172.176 257.979 172.07 257.724 172.07 257.458V249.119C172.07 248.852 172.176 248.597 172.364 248.409C172.552 248.221 172.807 248.115 173.073 248.115C173.34 248.115 173.595 248.221 173.783 248.409C173.971 248.597 174.077 248.852 174.077 249.119V257.458C174.077 257.724 173.971 257.979 173.783 258.167C173.595 258.355 173.34 258.461 173.073 258.461Z" fill="#576E97"/>
<path d="M207.905 258.491C207.639 258.491 207.384 258.386 207.195 258.197C207.007 258.009 206.901 257.754 206.901 257.488V249.149C206.901 248.882 207.007 248.627 207.195 248.439C207.384 248.251 207.639 248.145 207.905 248.145C208.171 248.145 208.426 248.251 208.615 248.439C208.803 248.627 208.908 248.882 208.908 249.149V257.488C208.908 257.754 208.803 258.009 208.615 258.197C208.426 258.386 208.171 258.491 207.905 258.491Z" fill="#576E97"/>
<path d="M242.736 258.521C242.47 258.521 242.215 258.416 242.027 258.227C241.839 258.039 241.733 257.784 241.733 257.518V249.179C241.733 248.913 241.839 248.657 242.027 248.469C242.215 248.281 242.47 248.175 242.736 248.175C243.003 248.175 243.258 248.281 243.446 248.469C243.634 248.657 243.74 248.913 243.74 249.179V257.518C243.74 257.784 243.634 258.039 243.446 258.227C243.258 258.416 243.003 258.521 242.736 258.521Z" fill="#576E97"/>
<path d="M277.568 258.552C277.302 258.552 277.046 258.446 276.858 258.258C276.67 258.07 276.564 257.814 276.564 257.548V249.219C276.564 248.953 276.67 248.698 276.858 248.509C277.046 248.321 277.302 248.216 277.568 248.216C277.834 248.216 278.089 248.321 278.277 248.509C278.465 248.698 278.571 248.953 278.571 249.219V257.548C278.571 257.814 278.465 258.07 278.277 258.258C278.089 258.446 277.834 258.552 277.568 258.552Z" fill="#576E97"/>
<path d="M312.389 258.591C312.123 258.591 311.868 258.486 311.68 258.297C311.492 258.109 311.386 257.854 311.386 257.588V249.249C311.386 248.983 311.492 248.727 311.68 248.539C311.868 248.351 312.123 248.245 312.389 248.245C312.656 248.245 312.911 248.351 313.099 248.539C313.287 248.727 313.393 248.983 313.393 249.249V257.588C313.393 257.854 313.287 258.109 313.099 258.297C312.911 258.486 312.656 258.591 312.389 258.591Z" fill="#576E97"/>
<path d="M347.211 258.622C346.944 258.622 346.689 258.516 346.501 258.328C346.313 258.14 346.207 257.884 346.207 257.618V249.279C346.207 249.013 346.313 248.758 346.501 248.57C346.689 248.381 346.944 248.276 347.211 248.276C347.477 248.276 347.732 248.381 347.92 248.57C348.108 248.758 348.214 249.013 348.214 249.279V257.618C348.214 257.884 348.108 258.14 347.92 258.328C347.732 258.516 347.477 258.622 347.211 258.622Z" fill="#576E97"/>
<path d="M128.448 105.016H123.952C123.686 105.016 123.431 104.91 123.243 104.722C123.055 104.534 122.949 104.279 122.949 104.013C122.949 103.747 123.055 103.491 123.243 103.303C123.431 103.115 123.686 103.009 123.952 103.009H128.448C128.714 103.009 128.969 103.115 129.158 103.303C129.346 103.491 129.452 103.747 129.452 104.013C129.452 104.279 129.346 104.534 129.158 104.722C128.969 104.91 128.714 105.016 128.448 105.016Z" fill="#576E97"/>
<path d="M128.448 126.862H123.952C123.686 126.862 123.431 126.756 123.243 126.568C123.055 126.38 122.949 126.125 122.949 125.859C122.949 125.593 123.055 125.337 123.243 125.149C123.431 124.961 123.686 124.855 123.952 124.855H128.448C128.714 124.855 128.969 124.961 129.158 125.149C129.346 125.337 129.452 125.593 129.452 125.859C129.452 126.125 129.346 126.38 129.158 126.568C128.969 126.756 128.714 126.862 128.448 126.862Z" fill="#576E97"/>
<path d="M128.448 148.718H123.952C123.686 148.718 123.431 148.613 123.243 148.425C123.055 148.236 122.949 147.981 122.949 147.715C122.949 147.449 123.055 147.194 123.243 147.005C123.431 146.817 123.686 146.711 123.952 146.711H128.448C128.714 146.711 128.969 146.817 129.158 147.005C129.346 147.194 129.452 147.449 129.452 147.715C129.452 147.981 129.346 148.236 129.158 148.425C128.969 148.613 128.714 148.718 128.448 148.718Z" fill="#576E97"/>
<path d="M128.448 170.595H123.952C123.686 170.595 123.431 170.489 123.243 170.301C123.055 170.113 122.949 169.857 122.949 169.591C122.949 169.325 123.055 169.07 123.243 168.882C123.431 168.693 123.686 168.588 123.952 168.588H128.448C128.714 168.588 128.969 168.693 129.158 168.882C129.346 169.07 129.452 169.325 129.452 169.591C129.452 169.857 129.346 170.113 129.158 170.301C128.969 170.489 128.714 170.595 128.448 170.595Z" fill="#576E97"/>
<path d="M128.448 192.421H123.952C123.686 192.421 123.431 192.315 123.243 192.127C123.055 191.939 122.949 191.683 122.949 191.417C122.949 191.151 123.055 190.896 123.243 190.708C123.431 190.52 123.686 190.414 123.952 190.414H128.448C128.714 190.414 128.969 190.52 129.158 190.708C129.346 190.896 129.452 191.151 129.452 191.417C129.452 191.683 129.346 191.939 129.158 192.127C128.969 192.315 128.714 192.421 128.448 192.421Z" fill="#576E97"/>
<path d="M128.448 214.277H123.952C123.686 214.277 123.431 214.172 123.243 213.983C123.055 213.795 122.949 213.54 122.949 213.274C122.949 213.008 123.055 212.752 123.243 212.564C123.431 212.376 123.686 212.27 123.952 212.27H128.448C128.714 212.27 128.969 212.376 129.158 212.564C129.346 212.752 129.452 213.008 129.452 213.274C129.452 213.54 129.346 213.795 129.158 213.983C128.969 214.172 128.714 214.277 128.448 214.277Z" fill="#576E97"/>
<path d="M128.448 236.123H123.952C123.686 236.123 123.431 236.018 123.243 235.829C123.055 235.641 122.949 235.386 122.949 235.12C122.949 234.854 123.055 234.598 123.243 234.41C123.431 234.222 123.686 234.116 123.952 234.116H128.448C128.714 234.116 128.969 234.222 129.158 234.41C129.346 234.598 129.452 234.854 129.452 235.12C129.452 235.386 129.346 235.641 129.158 235.829C128.969 236.018 128.714 236.123 128.448 236.123Z" fill="#576E97"/>
<path d="M358.651 250.082H129.311C129.045 250.082 128.79 249.976 128.601 249.788C128.413 249.6 128.307 249.345 128.307 249.079V95.3828C128.307 95.1166 128.413 94.8614 128.601 94.6732C128.79 94.485 129.045 94.3793 129.311 94.3793C129.577 94.3793 129.832 94.485 130.021 94.6732C130.209 94.8614 130.314 95.1166 130.314 95.3828V248.075H358.651C358.917 248.075 359.172 248.181 359.36 248.369C359.548 248.557 359.654 248.812 359.654 249.079C359.654 249.345 359.548 249.6 359.36 249.788C359.172 249.976 358.917 250.082 358.651 250.082Z" fill="#576E97"/>
<path d="M190.665 99.2561V101.815L182.637 119.828H178.623L186.35 102.487H178.262V105.99H174.709V99.2561H190.665Z" fill="#576E97"/>
<path d="M192.471 109.542C192.471 102.778 196.174 98.955 201.061 98.955C205.948 98.955 209.671 102.778 209.671 109.542C209.671 116.305 205.968 120.119 201.061 120.119C196.154 120.119 192.471 116.305 192.471 109.542ZM205.818 109.542C205.818 104.575 203.881 102.277 201.061 102.277C198.241 102.277 196.325 104.575 196.325 109.542C196.325 114.509 198.261 116.797 201.061 116.797C203.861 116.797 205.818 114.509 205.818 109.542V109.542Z" fill="#576E97"/>
<path d="M211.939 104.695C211.939 101.313 213.946 99.0453 216.846 99.0453C219.746 99.0453 221.783 101.283 221.783 104.695C221.783 108.107 219.776 110.335 216.846 110.335C213.916 110.335 211.939 108.077 211.939 104.695ZM219.375 104.695C219.375 102.397 218.432 101.102 216.846 101.102C215.261 101.102 214.317 102.427 214.317 104.695C214.317 106.963 215.321 108.277 216.846 108.277C218.372 108.277 219.375 106.983 219.375 104.695V104.695ZM229.189 99.256H232.069L218.02 119.828H215.14L229.189 99.256ZM225.426 114.399C225.426 111.017 227.433 108.759 230.333 108.759C233.233 108.759 235.27 111.017 235.27 114.399C235.27 117.781 233.263 120.049 230.333 120.049C227.403 120.049 225.426 117.771 225.426 114.399ZM232.862 114.399C232.862 112.141 231.859 110.816 230.333 110.816C228.808 110.816 227.794 112.101 227.794 114.399C227.794 116.697 228.798 117.991 230.323 117.991C231.849 117.991 232.862 116.657 232.862 114.399V114.399Z" fill="#576E97"/>
<path d="M229.028 125.347H182.607V128.578H229.028V125.347Z" fill="#576E97"/>
<path d="M229.029 133.124H174.83V136.355H229.029V133.124Z" fill="#576E97"/>
<path d="M229.029 140.701H174.83V143.932H229.029V140.701Z" fill="#576E97"/>
<path d="M217.057 148.277H174.83V151.508H217.057V148.277Z" fill="#576E97"/>
<path d="M398.7 268.867C398.7 268.867 406.006 284.602 406.457 318.44H411.424C411.424 318.44 407.31 267.442 397.857 263.79C392.81 261.913 398.7 268.867 398.7 268.867Z" fill="#576E97"/>
<g opacity="0.1">
<path d="M398.7 268.867C398.7 268.867 406.006 284.602 406.457 318.44H411.424C411.424 318.44 407.31 267.442 397.857 263.79C392.81 261.913 398.7 268.867 398.7 268.867Z" fill="black"/>
</g>
<path d="M395.79 263.82C396.794 260.809 397.305 260.859 399.102 258.883C396.432 258.441 393.191 257.086 388.826 258.822C384.992 260.629 383.557 264.843 384.3 268.958C384.331 269.107 384.329 269.262 384.295 269.411C384.26 269.56 384.193 269.7 384.099 269.821V269.821C383.993 269.953 383.856 270.057 383.702 270.127C383.547 270.196 383.378 270.227 383.208 270.218C383.039 270.209 382.874 270.161 382.727 270.076C382.58 269.991 382.456 269.873 382.363 269.73C381.526 268.37 381.044 266.82 380.961 265.225C380.879 263.629 381.199 262.038 381.892 260.599C378.47 261.682 374.526 263.469 372.419 266.379C370.111 269.56 370.883 277.056 373.583 280.187C373.695 280.32 373.756 280.489 373.756 280.664C373.756 280.838 373.695 281.007 373.583 281.14V281.14C373.52 281.224 373.441 281.294 373.35 281.346C373.258 281.397 373.157 281.428 373.053 281.438C372.949 281.447 372.844 281.434 372.745 281.4C372.646 281.367 372.555 281.312 372.479 281.241C371.115 280.185 370.002 278.842 369.217 277.307C368.395 275.521 368.023 273.413 369.077 271.757C364.722 272.42 361.049 281.632 361.491 281.532C362.103 284.793 365.043 287.763 366.508 289.078C366.76 289.304 366.926 289.611 366.977 289.946C367.028 290.281 366.962 290.623 366.789 290.914V290.914C366.681 291.096 366.535 291.253 366.36 291.373C366.186 291.494 365.988 291.575 365.78 291.613C365.571 291.65 365.357 291.642 365.152 291.589C364.947 291.536 364.756 291.439 364.591 291.306C363.026 290.031 360.658 287.864 359.995 286.017C358.55 287.021 358.6 289.479 358.631 291.245C358.711 296.885 362.956 300.969 366.297 305.104C370.625 306.691 375.31 307.038 379.824 306.107C383.105 305.337 385.961 303.326 387.792 300.498V300.427C384.722 299.755 381.33 298.882 378.199 298.17C377.908 298.107 377.651 297.936 377.48 297.693C377.309 297.449 377.236 297.15 377.276 296.855V296.855C377.323 296.55 377.486 296.276 377.731 296.089C377.976 295.902 378.284 295.817 378.59 295.851C382.714 296.343 385.916 297.276 390.15 297.718C392.438 295.711 396.111 288.225 395.439 288.426C391.816 288.205 385.665 288.626 382.243 287.121C382.006 287.006 381.824 286.803 381.736 286.555C381.648 286.307 381.661 286.035 381.771 285.796C381.869 285.622 382.017 285.482 382.196 285.392C382.375 285.303 382.576 285.269 382.775 285.295C387.405 286.211 392.159 286.313 396.824 285.596C399.583 281.853 401.57 278.963 401.891 276.173L390.963 275.169C390.732 275.156 390.514 275.056 390.351 274.891C390.189 274.725 390.094 274.505 390.086 274.273C390.077 274.041 390.155 273.815 390.304 273.637C390.453 273.46 390.663 273.344 390.893 273.313H390.953C395.409 272.791 400.637 274.387 404.209 271.848C404.209 271.848 408.936 267.262 407.35 264.582C403.627 266.64 395.379 265.174 395.79 263.82Z" fill="#576E97"/>
<path d="M414.295 270.282C411.008 276.108 408.578 282.378 407.079 288.897C402.062 311.486 402.192 318.149 402.192 318.149L397.998 318.29C397.998 318.29 406.166 275.039 412.9 268.958C419.633 262.876 414.295 270.282 414.295 270.282Z" fill="#576E97"/>
<path opacity="0.4" d="M414.295 270.282C411.008 276.108 408.578 282.378 407.079 288.897C402.062 311.486 402.192 318.149 402.192 318.149L397.998 318.29C397.998 318.29 406.166 275.039 412.9 268.958C419.633 262.876 414.295 270.282 414.295 270.282Z" fill="black"/>
<path d="M415.86 265.556C414.345 264.362 414.094 264.553 412.488 264.081C413.793 263.077 415.117 261.492 418.038 261.07C419.256 260.985 420.468 261.298 421.493 261.963C422.517 262.627 423.298 263.606 423.717 264.753C423.754 264.837 423.808 264.913 423.875 264.975C423.942 265.037 424.022 265.085 424.109 265.115V265.115C424.203 265.152 424.306 265.168 424.407 265.159C424.509 265.151 424.607 265.12 424.694 265.067C424.782 265.015 424.856 264.943 424.911 264.857C424.966 264.771 425.001 264.674 425.012 264.573C425.018 263.636 424.777 262.715 424.311 261.902C423.846 261.089 423.174 260.415 422.363 259.946C424.56 259.495 427.27 259.234 429.387 260.047C431.655 260.95 433.622 264.854 433.16 267.182C433.141 267.281 433.159 267.384 433.211 267.471C433.262 267.558 433.345 267.623 433.441 267.653V267.653C433.561 267.7 433.694 267.697 433.813 267.647C433.931 267.596 434.024 267.501 434.073 267.382C434.479 266.479 434.658 265.491 434.595 264.502C434.577 263.933 434.411 263.379 434.114 262.893C433.817 262.407 433.398 262.008 432.899 261.733C435.468 260.809 440.406 264.272 440.125 264.352C440.837 266.138 440.185 268.446 439.803 269.51C439.736 269.702 439.744 269.912 439.826 270.099C439.908 270.285 440.058 270.433 440.245 270.513V270.513C440.359 270.574 440.484 270.611 440.613 270.622C440.741 270.633 440.871 270.617 440.993 270.575C441.115 270.534 441.228 270.468 441.323 270.381C441.419 270.295 441.496 270.189 441.55 270.072C442.141 268.851 442.42 267.503 442.362 266.148C443.466 266.228 444.219 267.443 444.771 268.316C446.517 271.115 445.523 274.337 445.032 277.347C443.124 279.41 440.698 280.925 438.007 281.732C435.979 282.296 433.817 282.132 431.896 281.271C433.341 280.057 434.906 278.642 436.381 277.387C436.448 277.333 436.503 277.266 436.542 277.19C436.582 277.114 436.606 277.031 436.612 276.946C436.619 276.86 436.608 276.775 436.58 276.693C436.553 276.612 436.509 276.538 436.452 276.474V276.474C436.324 276.342 436.154 276.258 435.971 276.236C435.789 276.214 435.604 276.256 435.448 276.354C433.371 277.789 431.936 279.174 429.778 280.609C427.882 280.277 423.517 277.668 423.948 277.598C425.845 276.444 429.307 274.879 430.692 273.142C430.739 273.082 430.772 273.012 430.788 272.938C430.805 272.863 430.806 272.786 430.789 272.711C430.773 272.637 430.741 272.566 430.694 272.506C430.648 272.445 430.589 272.395 430.521 272.36V272.36C430.411 272.295 430.284 272.266 430.157 272.275C430.03 272.284 429.908 272.331 429.809 272.41C427.548 274.219 425.006 275.643 422.282 276.625C419.593 275.621 417.596 274.728 416.532 273.454L422.122 269.781C422.183 269.745 422.237 269.697 422.279 269.64C422.322 269.583 422.353 269.518 422.371 269.449C422.389 269.38 422.393 269.308 422.383 269.238C422.373 269.167 422.349 269.099 422.312 269.038C422.276 268.977 422.228 268.923 422.171 268.881C422.114 268.838 422.05 268.807 421.981 268.789C421.912 268.771 421.84 268.767 421.769 268.777C421.699 268.787 421.631 268.811 421.57 268.848V268.848C418.981 269.851 416.653 272.179 413.913 271.958C413.913 271.958 409.899 271.075 409.899 269.299C412.508 269.209 416.532 266.088 415.86 265.556Z" fill="#576E97"/>
<path opacity="0.2" d="M415.86 265.556C414.345 264.362 414.094 264.553 412.488 264.081C413.793 263.077 415.117 261.492 418.038 261.07C419.256 260.985 420.468 261.298 421.493 261.963C422.517 262.627 423.298 263.606 423.717 264.753C423.754 264.837 423.808 264.913 423.875 264.975C423.942 265.037 424.022 265.085 424.109 265.115V265.115C424.203 265.152 424.306 265.168 424.407 265.159C424.509 265.151 424.607 265.12 424.694 265.067C424.782 265.015 424.856 264.943 424.911 264.857C424.966 264.771 425.001 264.674 425.012 264.573C425.018 263.636 424.777 262.715 424.311 261.902C423.846 261.089 423.174 260.415 422.363 259.946C424.56 259.495 427.27 259.234 429.387 260.047C431.655 260.95 433.622 264.854 433.16 267.182C433.141 267.281 433.159 267.384 433.211 267.471C433.262 267.558 433.345 267.623 433.441 267.653V267.653C433.561 267.7 433.694 267.697 433.813 267.647C433.931 267.596 434.024 267.501 434.073 267.382C434.479 266.479 434.658 265.491 434.595 264.502C434.577 263.933 434.411 263.379 434.114 262.893C433.817 262.407 433.398 262.008 432.899 261.733C435.468 260.809 440.406 264.272 440.125 264.352C440.837 266.138 440.185 268.446 439.803 269.51C439.736 269.702 439.744 269.912 439.826 270.099C439.908 270.285 440.058 270.433 440.245 270.513V270.513C440.359 270.574 440.484 270.611 440.613 270.622C440.741 270.633 440.871 270.617 440.993 270.575C441.115 270.534 441.228 270.468 441.323 270.381C441.419 270.295 441.496 270.189 441.55 270.072C442.141 268.851 442.42 267.503 442.362 266.148C443.466 266.228 444.219 267.443 444.771 268.316C446.517 271.115 445.523 274.337 445.032 277.347C443.124 279.41 440.698 280.925 438.007 281.732C435.979 282.296 433.817 282.132 431.896 281.271C433.341 280.057 434.906 278.642 436.381 277.387C436.448 277.333 436.503 277.266 436.542 277.19C436.582 277.114 436.606 277.031 436.612 276.946C436.619 276.86 436.608 276.775 436.58 276.693C436.553 276.612 436.509 276.538 436.452 276.474V276.474C436.324 276.342 436.154 276.258 435.971 276.236C435.789 276.214 435.604 276.256 435.448 276.354C433.371 277.789 431.936 279.174 429.778 280.609C427.882 280.277 423.517 277.668 423.948 277.598C425.845 276.444 429.307 274.879 430.692 273.142C430.739 273.082 430.772 273.012 430.788 272.938C430.805 272.863 430.806 272.786 430.789 272.711C430.773 272.637 430.741 272.566 430.694 272.506C430.648 272.445 430.589 272.395 430.521 272.36V272.36C430.411 272.295 430.284 272.266 430.157 272.275C430.03 272.284 429.908 272.331 429.809 272.41C427.548 274.219 425.006 275.643 422.282 276.625C419.593 275.621 417.596 274.728 416.532 273.454L422.122 269.781C422.183 269.745 422.237 269.697 422.279 269.64C422.322 269.583 422.353 269.518 422.371 269.449C422.389 269.38 422.393 269.308 422.383 269.238C422.373 269.167 422.349 269.099 422.312 269.038C422.276 268.977 422.228 268.923 422.171 268.881C422.114 268.838 422.05 268.807 421.981 268.789C421.912 268.771 421.84 268.767 421.769 268.777C421.699 268.787 421.631 268.811 421.57 268.848V268.848C418.981 269.851 416.653 272.179 413.913 271.958C413.913 271.958 409.899 271.075 409.899 269.299C412.508 269.209 416.532 266.088 415.86 265.556Z" fill="white"/>
<path d="M410.692 277.889C410.692 277.889 402.503 289.821 400.296 301.05C398.088 312.279 397.907 317.106 397.907 317.106L392.94 317.156C392.94 317.156 401.731 283.037 409.287 276.293C416.843 269.55 410.692 277.889 410.692 277.889Z" fill="#576E97"/>
<path opacity="0.2" d="M410.692 277.889C410.692 277.889 402.503 289.821 400.296 301.05C398.088 312.279 397.907 317.106 397.907 317.106L392.94 317.156C392.94 317.156 401.731 283.037 409.287 276.293C416.843 269.55 410.692 277.889 410.692 277.889Z" fill="black"/>
<path d="M411.013 276.835C410.511 274.246 410.09 274.246 408.835 272.43C411.063 272.36 413.853 271.597 417.255 273.494C420.195 275.39 420.918 278.973 419.854 282.284C419.814 282.405 419.801 282.533 419.815 282.659C419.829 282.785 419.869 282.907 419.934 283.017V283.017C420.007 283.136 420.107 283.235 420.226 283.308C420.345 283.381 420.479 283.424 420.618 283.435C420.757 283.446 420.897 283.424 421.026 283.37C421.154 283.317 421.269 283.233 421.359 283.127C422.192 282.106 422.754 280.891 422.994 279.595C423.235 278.299 423.145 276.963 422.734 275.711C425.413 276.976 428.454 278.852 429.859 281.461C431.404 284.321 429.959 290.372 427.41 292.64C427.302 292.734 427.229 292.862 427.205 293.003C427.181 293.144 427.208 293.289 427.28 293.413C427.322 293.487 427.379 293.551 427.447 293.602C427.515 293.653 427.593 293.69 427.676 293.71C427.758 293.729 427.844 293.732 427.928 293.717C428.012 293.702 428.092 293.671 428.163 293.624C429.395 292.908 430.454 291.927 431.264 290.754C431.75 290.118 432.07 289.372 432.196 288.582C432.322 287.792 432.25 286.983 431.986 286.228C435.468 287.231 437.495 295.179 437.134 295.049C436.271 297.648 433.552 299.765 432.197 300.678C431.966 300.837 431.798 301.071 431.721 301.34C431.644 301.609 431.663 301.897 431.775 302.153V302.153C431.844 302.314 431.947 302.458 432.077 302.575C432.207 302.692 432.36 302.78 432.527 302.832C432.694 302.885 432.87 302.9 433.043 302.879C433.216 302.857 433.383 302.798 433.532 302.705C434.946 301.832 437.124 300.317 437.867 298.872C438.94 299.876 438.629 301.883 438.419 303.297C437.736 307.904 433.823 310.794 430.641 313.814C426.926 314.639 423.053 314.406 419.462 313.142C416.861 312.159 414.742 310.206 413.552 307.693V307.623C416.141 307.402 419.011 307.071 421.65 306.82C421.897 306.792 422.124 306.675 422.289 306.489C422.454 306.304 422.545 306.064 422.543 305.816C422.543 305.55 422.437 305.295 422.249 305.107C422.061 304.918 421.806 304.813 421.54 304.813C418.108 304.763 415.388 305.184 411.876 305.084C410.22 303.167 408.023 296.664 408.544 296.895C411.555 297.116 416.572 298.129 419.493 297.266C419.593 297.236 419.687 297.185 419.768 297.118C419.85 297.051 419.917 296.968 419.966 296.875C420.016 296.782 420.046 296.68 420.056 296.575C420.066 296.47 420.055 296.364 420.024 296.263V296.263C419.968 296.103 419.861 295.965 419.72 295.871C419.579 295.777 419.411 295.732 419.242 295.741C415.35 295.986 411.446 295.555 407.701 294.467C405.845 291.105 404.53 288.526 404.571 286.198L413.602 286.529C413.786 286.53 413.964 286.466 414.105 286.348C414.245 286.229 414.339 286.065 414.369 285.883C414.4 285.702 414.364 285.516 414.269 285.358C414.175 285.201 414.027 285.082 413.853 285.024V285.024C410.26 284.101 405.825 284.853 403.166 282.375C403.166 282.375 399.784 278.12 401.379 276.093C404.29 278.29 411.244 277.969 411.013 276.835Z" fill="#576E97"/>
<path opacity="0.1" d="M411.013 276.835C410.511 274.246 410.09 274.246 408.835 272.43C411.063 272.36 413.853 271.597 417.255 273.494C420.195 275.39 420.918 278.973 419.854 282.284C419.814 282.405 419.801 282.533 419.815 282.659C419.829 282.785 419.869 282.907 419.934 283.017V283.017C420.007 283.136 420.107 283.235 420.226 283.308C420.345 283.381 420.479 283.424 420.618 283.435C420.757 283.446 420.897 283.424 421.026 283.37C421.154 283.317 421.269 283.233 421.359 283.127C422.192 282.106 422.754 280.891 422.994 279.595C423.235 278.299 423.145 276.963 422.734 275.711C425.413 276.976 428.454 278.852 429.859 281.461C431.404 284.321 429.959 290.372 427.41 292.64C427.302 292.734 427.229 292.862 427.205 293.003C427.181 293.144 427.208 293.289 427.28 293.413C427.322 293.487 427.379 293.551 427.447 293.602C427.515 293.653 427.593 293.69 427.676 293.71C427.758 293.729 427.844 293.732 427.928 293.717C428.012 293.702 428.092 293.671 428.163 293.624C429.395 292.908 430.454 291.927 431.264 290.754C431.75 290.118 432.07 289.372 432.196 288.582C432.322 287.792 432.25 286.983 431.986 286.228C435.468 287.231 437.495 295.179 437.134 295.049C436.271 297.648 433.552 299.765 432.197 300.678C431.966 300.837 431.798 301.071 431.721 301.34C431.644 301.609 431.663 301.897 431.775 302.153V302.153C431.844 302.314 431.947 302.458 432.077 302.575C432.207 302.692 432.36 302.78 432.527 302.832C432.694 302.885 432.87 302.9 433.043 302.879C433.216 302.857 433.383 302.798 433.532 302.705C434.946 301.832 437.124 300.317 437.867 298.872C438.94 299.876 438.629 301.883 438.419 303.297C437.736 307.904 433.823 310.794 430.641 313.814C426.926 314.639 423.053 314.406 419.462 313.142C416.861 312.159 414.742 310.206 413.552 307.693V307.623C416.141 307.402 419.011 307.071 421.65 306.82C421.897 306.792 422.124 306.675 422.289 306.489C422.454 306.304 422.545 306.064 422.543 305.816C422.543 305.55 422.437 305.295 422.249 305.107C422.061 304.918 421.806 304.813 421.54 304.813C418.108 304.763 415.388 305.184 411.876 305.084C410.22 303.167 408.023 296.664 408.544 296.895C411.555 297.116 416.572 298.129 419.493 297.266C419.593 297.236 419.687 297.185 419.768 297.118C419.85 297.051 419.917 296.968 419.966 296.875C420.016 296.782 420.046 296.68 420.056 296.575C420.066 296.47 420.055 296.364 420.024 296.263V296.263C419.968 296.103 419.861 295.965 419.72 295.871C419.579 295.777 419.411 295.732 419.242 295.741C415.35 295.986 411.446 295.555 407.701 294.467C405.845 291.105 404.53 288.526 404.571 286.198L413.602 286.529C413.786 286.53 413.964 286.466 414.105 286.348C414.245 286.229 414.339 286.065 414.369 285.883C414.4 285.702 414.364 285.516 414.269 285.358C414.175 285.201 414.027 285.082 413.853 285.024V285.024C410.26 284.101 405.825 284.853 403.166 282.375C403.166 282.375 399.784 278.12 401.379 276.093C404.29 278.29 411.244 277.969 411.013 276.835Z" fill="black"/>
<path d="M394.536 354.235H411.756C414.719 354.234 417.594 353.223 419.907 351.37C422.22 349.517 423.833 346.931 424.48 344.039L430.973 315.008H375.309L381.801 344.039C382.449 346.933 384.064 349.52 386.378 351.373C388.693 353.226 391.57 354.236 394.536 354.235Z" fill="#576E97"/>
<g opacity="0.3">
<path d="M394.536 354.235H411.756C414.719 354.234 417.594 353.223 419.907 351.37C422.22 349.517 423.833 346.931 424.48 344.039L430.973 315.008H375.309L381.801 344.039C382.449 346.933 384.064 349.52 386.378 351.373C388.693 353.226 391.57 354.236 394.536 354.235Z" fill="black"/>
</g>
<path opacity="0.1" d="M395.79 263.82C396.794 260.809 397.305 260.859 399.102 258.883C396.432 258.441 393.191 257.086 388.826 258.822C384.992 260.629 383.557 264.843 384.3 268.958C384.331 269.107 384.329 269.262 384.295 269.411C384.26 269.56 384.193 269.7 384.099 269.821V269.821C383.993 269.953 383.856 270.057 383.702 270.127C383.547 270.196 383.378 270.227 383.208 270.218C383.039 270.209 382.874 270.161 382.727 270.076C382.58 269.991 382.456 269.873 382.363 269.73C381.526 268.37 381.044 266.82 380.961 265.225C380.879 263.629 381.199 262.038 381.892 260.599C378.47 261.682 374.526 263.469 372.419 266.379C370.111 269.56 370.883 277.056 373.583 280.187C373.695 280.32 373.756 280.489 373.756 280.664C373.756 280.838 373.695 281.007 373.583 281.14V281.14C373.52 281.224 373.441 281.294 373.35 281.346C373.258 281.397 373.157 281.428 373.053 281.438C372.949 281.447 372.844 281.434 372.745 281.4C372.646 281.367 372.555 281.312 372.479 281.241C371.115 280.185 370.002 278.842 369.217 277.307C368.395 275.521 368.023 273.413 369.077 271.757C364.722 272.42 361.049 281.632 361.491 281.532C362.103 284.793 365.043 287.763 366.508 289.078C366.76 289.304 366.926 289.611 366.977 289.946C367.028 290.281 366.962 290.623 366.789 290.914V290.914C366.681 291.096 366.535 291.253 366.36 291.373C366.186 291.494 365.988 291.575 365.78 291.613C365.571 291.65 365.357 291.642 365.152 291.589C364.947 291.536 364.756 291.439 364.591 291.306C363.026 290.031 360.658 287.864 359.995 286.017C358.55 287.021 358.6 289.479 358.631 291.245C358.711 296.885 362.956 300.969 366.297 305.104C370.625 306.691 375.31 307.038 379.824 306.107C383.105 305.337 385.961 303.326 387.792 300.498V300.427C384.722 299.755 381.33 298.882 378.199 298.17C377.908 298.107 377.651 297.936 377.48 297.693C377.309 297.449 377.236 297.15 377.276 296.855V296.855C377.323 296.55 377.486 296.276 377.731 296.089C377.976 295.902 378.284 295.817 378.59 295.851C382.714 296.343 385.916 297.276 390.15 297.718C392.438 295.711 396.111 288.225 395.439 288.426C391.816 288.205 385.665 288.626 382.243 287.121C382.006 287.006 381.824 286.803 381.736 286.555C381.648 286.307 381.661 286.035 381.771 285.796C381.869 285.622 382.017 285.482 382.196 285.392C382.375 285.303 382.576 285.269 382.775 285.295C387.405 286.211 392.159 286.313 396.824 285.596C399.583 281.853 401.57 278.963 401.891 276.173L390.963 275.169C390.732 275.156 390.514 275.056 390.351 274.891C390.189 274.725 390.094 274.505 390.086 274.273C390.077 274.041 390.155 273.815 390.304 273.637C390.453 273.46 390.663 273.344 390.893 273.313H390.953C395.409 272.791 400.637 274.387 404.209 271.848C404.209 271.848 408.936 267.262 407.35 264.582C403.627 266.64 395.379 265.174 395.79 263.82Z" fill="white"/>
<path d="M365.434 174.157C364.922 174.539 364.551 174.819 364.099 175.161C363.648 175.502 363.246 175.753 362.815 176.044C361.952 176.616 361.069 177.148 360.176 177.679C358.368 178.741 356.502 179.699 354.586 180.549C352.586 181.445 350.515 182.173 348.395 182.727C347.26 183.03 346.107 183.258 344.943 183.409C344.351 183.48 343.728 183.51 343.096 183.56H342.093H341.47L340.808 183.51C339.271 183.326 337.784 182.852 336.423 182.115C335.315 181.523 334.269 180.82 333.302 180.018C331.615 178.6 330.081 177.009 328.726 175.271C326.207 172.036 324.088 168.508 322.414 164.764L327.04 161.884C329.453 164.61 332.016 167.2 334.717 169.641C335.943 170.761 337.266 171.768 338.671 172.652C339.237 173.005 339.839 173.297 340.467 173.525C340.827 173.668 341.214 173.733 341.601 173.716H341.701L342.173 173.645C342.504 173.585 342.835 173.525 343.176 173.425C343.869 173.254 344.591 173.033 345.324 172.782C346.878 172.204 348.396 171.534 349.87 170.775C351.395 169.983 352.93 169.14 354.436 168.216C355.168 167.795 355.931 167.283 356.684 166.812L357.787 166.089L360.798 164.082L365.434 174.157Z" fill="#576E97"/>
<path opacity="0.2" d="M365.434 174.157C364.922 174.539 364.551 174.819 364.099 175.161C363.648 175.502 363.246 175.753 362.815 176.044C361.952 176.616 361.069 177.148 360.176 177.679C358.368 178.741 356.502 179.699 354.586 180.549C352.586 181.445 350.515 182.173 348.395 182.727C347.26 183.03 346.107 183.258 344.943 183.409C344.351 183.48 343.728 183.51 343.096 183.56H342.093H341.47L340.808 183.51C339.271 183.326 337.784 182.852 336.423 182.115C335.315 181.523 334.269 180.82 333.302 180.018C331.615 178.6 330.081 177.009 328.726 175.271C326.207 172.036 324.088 168.508 322.414 164.764L327.04 161.884C329.453 164.61 332.016 167.2 334.717 169.641C335.943 170.761 337.266 171.768 338.671 172.652C339.237 173.005 339.839 173.297 340.467 173.525C340.827 173.668 341.214 173.733 341.601 173.716H341.701L342.173 173.645C342.504 173.585 342.835 173.525 343.176 173.425C343.869 173.254 344.591 173.033 345.324 172.782C346.878 172.204 348.396 171.534 349.87 170.775C351.395 169.983 352.93 169.14 354.436 168.216C355.168 167.795 355.931 167.283 356.684 166.812L357.787 166.089L360.798 164.082L365.434 174.157Z" fill="black"/>
<path d="M324.511 165.156L320.176 163.079L323.668 157.69C323.668 157.69 327.331 160.7 327.682 163.781L324.511 165.156Z" fill="#FF8B7B"/>
<path d="M315.48 159.576L318.41 156.245L323.679 157.7L320.176 163.079L315.48 159.576Z" fill="#FF8B7B"/>
<path d="M407.039 356.322C407.502 355.215 408.154 354.196 408.966 353.312V353.312C408.966 353.312 412.227 347.702 409.709 337.958L414.194 334.014C415.417 334.023 416.59 334.505 417.466 335.359C418.037 335.988 418.561 336.658 419.031 337.366C420.677 340.186 424.279 346.658 424.279 346.658L423.607 347.03C422.423 345.114 421.13 343.268 419.733 341.5C418.258 339.845 418.288 342.795 418.83 345.294C419.372 347.792 417.767 351.746 413.492 354.325C408.544 357.416 406.347 358.389 407.039 356.322Z" fill="#263238"/>
<path d="M415.258 342.976C415.258 344.632 416.372 347.552 414.897 349.729C414.24 350.735 413.367 351.581 412.341 352.205C411.314 352.828 410.161 353.213 408.966 353.332C408.966 353.332 411.515 348.967 410.371 341.24C410.205 340.142 409.984 339.054 409.709 337.978C409.709 337.978 413.602 335.098 415.388 334.697L416.332 337.266C416.177 338.97 415.841 340.652 415.328 342.283C415.26 342.508 415.236 342.743 415.258 342.976V342.976Z" fill="#FF8B7B"/>
<path d="M416.332 337.266C416.178 338.969 415.841 340.651 415.328 342.283C415.25 342.505 415.216 342.74 415.228 342.976L411.555 344.531L410.341 341.24L406.026 329.509L412.458 326.779L415.358 334.697L416.332 337.266Z" fill="#FF8B7B"/>
<path opacity="0.2" d="M412.488 326.789L406.056 329.509L408.253 335.47H408.334C409.522 335.526 410.708 335.326 411.812 334.885C412.917 334.443 413.914 333.77 414.736 332.911L412.488 326.789Z" fill="black"/>
<path d="M358.048 352.649C359.034 352.002 360.118 351.52 361.26 351.225V351.225C361.26 351.225 367.03 348.264 370.151 338.691L376.172 337.477C376.698 337.734 377.166 338.097 377.548 338.542C377.929 338.987 378.215 339.506 378.389 340.066C378.44 341.116 378.42 342.169 378.329 343.217C378.229 346.498 377.687 354.998 377.687 354.998H376.914C376.969 352.386 376.889 349.774 376.673 347.17C376.322 344.983 374.757 347.471 373.864 349.88C372.97 352.288 369.498 354.727 364.491 354.616C358.681 354.365 356.322 353.994 358.048 352.649Z" fill="#263238"/>
<path d="M375.238 342.193C374.56 343.373 373.68 344.426 372.639 345.304C371.435 346.217 371.034 350.121 368.224 351.325C367.129 351.827 365.935 352.078 364.73 352.061C363.526 352.043 362.34 351.758 361.26 351.225C361.26 351.225 365.605 348.997 368.806 342.133C369.539 340.543 369.75 338.762 369.408 337.045L367.281 325.896L374.586 324.943L376.433 338.249C376.559 339.669 376.131 341.082 375.238 342.193V342.193Z" fill="#FF8B7B"/>
<path opacity="0.2" d="M366.659 321.671L368.344 331.466L368.977 331.616C370.062 331.863 371.188 331.874 372.279 331.649C373.369 331.424 374.399 330.968 375.299 330.312V330.312L374.054 320.828L366.659 321.671Z" fill="black"/>
<path d="M391.023 168.889C391.019 168.61 390.999 168.332 390.963 168.056C390.831 166.865 390.465 165.713 389.886 164.664C389.307 163.616 388.526 162.692 387.589 161.946C386.652 161.2 385.577 160.646 384.425 160.317C383.273 159.988 382.068 159.89 380.878 160.028H380.718C380.105 160.098 379.473 160.189 378.851 160.279C374.604 160.836 370.402 161.694 366.277 162.848C365.575 163.038 364.852 163.269 364.15 163.5C363.196 163.821 362.243 164.152 361.34 164.504C359.276 165.262 357.555 166.741 356.494 168.668C355.434 170.595 355.106 172.84 355.57 174.99C356.99 182.827 359.524 190.42 363.096 197.539C364.28 199.887 364.461 204.644 365.464 207.574L393.121 201.974V202.024C391.816 193.314 391.254 178.533 391.023 168.889Z" fill="#263238"/>
<path d="M365.484 207.514C365.484 207.514 363.949 242.837 362.574 269.951C361.491 291.517 365.695 328.355 365.695 328.355C369.512 329.328 373.557 328.766 376.964 326.79C377.125 328.526 378.63 292.871 376.964 272.34C384.732 242.305 396.121 213.916 387.712 202.857L365.484 207.514Z" fill="#263238"/>
<path opacity="0.3" d="M378.64 228.246L390.05 221.773C388.505 232.481 384.32 245.937 380.256 260.298C377.085 248.868 375.61 236.956 378.64 228.246Z" fill="black"/>
<path d="M370.442 208.376C370.442 208.376 378.008 235.742 382.885 261.963C385.003 280.809 405.283 332.329 405.283 332.329L408.776 331.666C410.433 331.346 411.968 330.571 413.211 329.428L414.385 328.355C414.385 328.355 408.364 291.015 402.554 276.474C402.694 246.088 403.256 213.344 391.836 203.148L370.442 208.376Z" fill="#263238"/>
<path d="M379.453 160.068C379.453 160.068 376.553 192.411 383.888 234.437C395.93 233.715 403.366 230.373 403.366 230.373C403.366 230.373 400.898 207.584 393.472 195.963C392.197 187.815 393.341 170.434 392.579 164.092C392.441 162.98 391.939 161.945 391.151 161.148C390.363 160.352 389.334 159.838 388.224 159.687C385.295 159.476 382.352 159.604 379.453 160.068V160.068Z" fill="#576E97"/>
<path opacity="0.1" d="M379.453 160.068C379.453 160.068 376.553 192.411 383.888 234.437C395.93 233.715 403.366 230.373 403.366 230.373C403.366 230.373 400.898 207.584 393.472 195.963C392.197 187.815 393.341 170.434 392.579 164.092C392.441 162.98 391.939 161.945 391.151 161.148C390.363 160.352 389.334 159.838 388.224 159.687C385.295 159.476 382.352 159.604 379.453 160.068V160.068Z" fill="black"/>
<path d="M366.167 162.406C366.167 162.406 364.591 177.73 374.446 235.23C370.542 237.297 362.203 236.585 362.203 236.585C362.203 236.585 362.343 217.438 363.648 202.145C364.28 194.709 358.891 193.605 355.851 185.386C354.356 175.873 355.259 168.136 356.603 167.042C358.781 165.286 362.353 162.888 366.167 162.406Z" fill="#576E97"/>
<path opacity="0.1" d="M366.167 162.406C366.167 162.406 364.591 177.73 374.446 235.23C370.542 237.297 362.203 236.585 362.203 236.585C362.203 236.585 362.343 217.438 363.648 202.145C364.28 194.709 358.891 193.605 355.851 185.386C354.356 175.873 355.259 168.136 356.603 167.042C358.781 165.286 362.353 162.888 366.167 162.406Z" fill="black"/>
<path opacity="0.7" d="M379.323 159.978C379.323 159.978 378.761 173.214 378.961 182.898C379.965 176.044 382.393 169.491 382.323 167.323C381.624 166.952 380.953 166.529 380.316 166.059C381.089 165.427 381.93 164.885 382.825 164.443C382.945 162.82 382.968 161.192 382.895 159.566C380.958 159.737 379.323 159.978 379.323 159.978Z" fill="white"/>
<path opacity="0.7" d="M366.277 162.286C366.078 169.943 366.414 177.605 367.281 185.216C365.143 179.105 362.384 173.264 362.634 170.966C363.748 170.033 364.732 168.959 364.732 168.959C364.022 168.516 363.241 168.201 362.424 168.026C362.454 166.317 362.585 164.612 362.815 162.918C364.712 162.567 366.277 162.286 366.277 162.286Z" fill="white"/>
<path d="M389.358 164.694C388.452 166.293 388.198 168.18 388.648 169.961C389.099 171.743 390.219 173.282 391.776 174.257H391.836C393.843 175.492 395.75 176.736 397.617 178.011C399.483 179.285 401.309 180.61 402.965 181.924C403.743 182.554 404.486 183.223 405.193 183.931C405.475 184.205 405.743 184.493 405.996 184.794C406.206 185.035 406.307 185.216 406.277 185.095L406.016 183.72C406.116 184.59 405.936 185.468 405.504 186.229C404.88 187.547 404.113 188.792 403.216 189.942C402.234 191.255 401.179 192.511 400.055 193.705C398.941 194.95 397.687 196.194 396.543 197.348L399.503 201.914C401.241 201.111 402.918 200.182 404.521 199.134C406.165 198.079 407.725 196.898 409.187 195.602C410.797 194.205 412.22 192.606 413.422 190.845C414.198 189.676 414.818 188.411 415.268 187.082C415.694 185.809 415.898 184.471 415.87 183.128V182.577L415.629 181.864C415.331 180.989 414.934 180.15 414.445 179.365C413.935 178.555 413.364 177.783 412.739 177.057C411.827 175.993 410.848 174.987 409.809 174.047C407.919 172.31 405.933 170.681 403.858 169.17C401.851 167.675 399.794 166.28 397.727 164.945C395.66 163.61 393.593 162.346 391.365 161.122L389.358 164.694Z" fill="#576E97"/>
<path d="M400.005 197.479C397.821 196.734 395.442 196.798 393.301 197.659L395.83 205.316L399.774 201.894L400.005 197.479Z" fill="#FF8B7B"/>
<path d="M395.83 205.316L393.301 197.659L389.418 201.944L392.689 207.233L395.83 205.316Z" fill="#FF8B7B"/>
<path d="M362.534 159.305C360.942 149.867 362.276 140.167 366.357 131.508C371.134 121.473 391.073 128.498 388.063 145.337C386.287 155.261 382.042 153.575 389.538 160.208C393.863 164.022 381.109 165.015 380.055 162.466C380.055 162.466 375.499 162.898 372.338 160.339C372.298 160.339 363.337 164.503 362.534 159.305Z" fill="#263238"/>
<path d="M370.291 169.3C374.636 170.003 377.426 164.444 378.52 161.694H378.028C376.784 158.232 377.667 152.602 378.48 149.271L370.452 155.583C370.943 158.152 371.023 160.821 368.645 162.246C368.164 162.326 367.642 162.427 367.21 162.527C366.678 165.076 366.628 168.718 370.291 169.3Z" fill="#FF8B7B"/>
<path opacity="0.2" d="M375.028 151.859L370.291 155.593C370.451 156.339 370.552 157.098 370.592 157.86C372.338 157.68 375.017 156.235 375.278 154.418C375.346 153.557 375.261 152.691 375.028 151.859V151.859Z" fill="black"/>
<path d="M382.745 143.35C380.186 149.672 379.242 152.381 374.877 154.629C368.304 157.981 361.089 153.465 361.701 146.501C362.253 140.229 366.337 130.937 373.512 130.445C375.096 130.336 376.681 130.634 378.117 131.31C379.553 131.987 380.792 133.019 381.717 134.309C382.642 135.599 383.222 137.104 383.402 138.681C383.582 140.258 383.356 141.855 382.745 143.32V143.35Z" fill="#FF8B7B"/>
<path d="M367.682 141.323C366.811 142.369 365.797 143.287 364.671 144.052C364.87 144.339 365.129 144.577 365.431 144.751C365.733 144.924 366.07 145.028 366.417 145.056L367.682 141.323Z" fill="#D85B5B"/>
<path d="M374.305 140.4C374.351 140.415 374.4 140.415 374.446 140.4C374.479 140.386 374.508 140.367 374.533 140.342C374.558 140.317 374.578 140.287 374.591 140.254C374.604 140.221 374.611 140.186 374.61 140.151C374.609 140.115 374.601 140.08 374.586 140.048V140.048C374.392 139.579 374.089 139.163 373.701 138.834C373.314 138.506 372.853 138.275 372.358 138.162C372.287 138.15 372.213 138.167 372.154 138.209C372.094 138.251 372.054 138.316 372.042 138.387C372.03 138.459 372.047 138.533 372.09 138.592C372.132 138.652 372.196 138.692 372.268 138.704C372.675 138.803 373.053 138.998 373.371 139.271C373.688 139.545 373.936 139.891 374.094 140.279C374.118 140.314 374.149 140.343 374.186 140.364C374.222 140.385 374.263 140.397 374.305 140.4Z" fill="#263238"/>
<path d="M364.441 136.476C364.487 136.486 364.535 136.486 364.581 136.476C364.965 136.311 365.382 136.239 365.798 136.265C366.215 136.291 366.62 136.415 366.98 136.626C367.009 136.648 367.041 136.663 367.076 136.672C367.111 136.68 367.147 136.682 367.183 136.676C367.218 136.671 367.252 136.658 367.283 136.639C367.314 136.62 367.34 136.595 367.361 136.566V136.566C367.4 136.506 367.415 136.432 367.402 136.361C367.389 136.29 367.349 136.227 367.291 136.185C366.856 135.92 366.364 135.763 365.856 135.726C365.348 135.689 364.839 135.774 364.371 135.974C364.337 135.985 364.306 136.003 364.28 136.027C364.254 136.05 364.232 136.079 364.217 136.11C364.202 136.142 364.194 136.177 364.193 136.212C364.191 136.247 364.197 136.282 364.21 136.315C364.228 136.364 364.259 136.406 364.3 136.438C364.341 136.47 364.389 136.49 364.441 136.496V136.476Z" fill="#263238"/>
<path d="M371.686 141.694C371.515 142.216 371.094 142.547 370.743 142.437C370.392 142.326 370.261 141.805 370.452 141.273C370.642 140.741 371.044 140.42 371.385 140.53C371.726 140.64 371.867 141.162 371.686 141.694Z" fill="#263238"/>
<path d="M365.745 139.707C365.564 140.229 365.143 140.56 364.802 140.45C364.461 140.339 364.32 139.818 364.501 139.296C364.681 138.774 365.093 138.433 365.434 138.553C365.775 138.674 365.926 139.175 365.745 139.707Z" fill="#263238"/>
<path d="M365.575 138.623L364.441 137.841C364.441 137.841 364.762 139.045 365.575 138.623Z" fill="#263238"/>
<path d="M371.525 140.61L370.381 139.827C370.381 139.827 370.702 141.032 371.525 140.61Z" fill="#263238"/>
<path d="M370.341 148.809C370.685 148.715 371.02 148.594 371.345 148.448C371.39 148.426 371.425 148.388 371.443 148.342C371.462 148.295 371.463 148.244 371.445 148.197V148.197C371.423 148.152 371.385 148.117 371.339 148.098C371.293 148.08 371.241 148.079 371.194 148.097C370.457 148.443 369.649 148.611 368.836 148.588C368.022 148.566 367.224 148.353 366.508 147.966C366.487 147.952 366.463 147.941 366.438 147.936C366.413 147.931 366.387 147.93 366.362 147.935C366.337 147.94 366.313 147.949 366.291 147.963C366.27 147.977 366.251 147.995 366.237 148.016C366.222 148.037 366.212 148.061 366.207 148.086C366.202 148.111 366.201 148.137 366.206 148.162C366.211 148.187 366.22 148.211 366.234 148.233C366.248 148.254 366.266 148.273 366.287 148.287C367.522 148.975 368.973 149.161 370.341 148.809V148.809Z" fill="#263238"/>
<path d="M371.204 132.462C371.204 132.462 369.006 134.278 370.311 136.034C371.615 137.79 375.66 137.038 376.432 140.4C377.205 143.761 375.74 146.36 378.178 147.424C380.617 148.488 382.955 145.156 382.955 145.156C382.955 145.156 386.798 137.329 382.052 133.114C377.305 128.899 371.786 127.424 368.485 129.331C365.183 131.238 363.337 132.612 364.561 133.435C365.785 134.258 367.692 134.85 368.515 134.027C369.241 133.257 370.175 132.713 371.204 132.462Z" fill="#263238"/>
<path d="M382.564 148.959C381.797 150.022 380.644 150.742 379.353 150.966C377.627 151.247 376.954 149.662 377.587 148.126C378.159 146.762 379.744 144.945 381.41 145.357C381.984 145.52 382.47 145.905 382.761 146.426C383.053 146.947 383.126 147.562 382.965 148.136C382.894 148.437 382.757 148.718 382.564 148.959Z" fill="#FF8B7B"/>
<path d="M366.177 162.637C366.78 162.271 367.479 162.096 368.184 162.135C368.184 162.135 366.237 168.317 370.672 168.668C375.108 169.019 378.449 161.433 378.449 161.433C378.754 161.318 379.08 161.274 379.404 161.305C379.727 161.337 380.04 161.442 380.316 161.613C380.316 161.613 376.804 170.404 370.692 170.153C364.581 169.902 366.177 162.637 366.177 162.637Z" fill="#576E97"/>
<path opacity="0.7" d="M366.177 162.637C366.78 162.271 367.479 162.096 368.184 162.135C368.184 162.135 366.237 168.317 370.672 168.668C375.108 169.019 378.449 161.433 378.449 161.433C378.754 161.318 379.08 161.274 379.404 161.305C379.727 161.337 380.04 161.442 380.316 161.613C380.316 161.613 376.804 170.404 370.692 170.153C364.581 169.902 366.177 162.637 366.177 162.637Z" fill="white"/>
<path d="M378.911 143.611L374.646 141.955C374.506 140.751 372.98 140.159 372.328 139.898C371.676 139.637 370.02 139.005 369.117 139.948L367.632 139.376C367.632 138.071 365.976 137.429 365.294 137.168C364.611 136.907 362.403 136.044 361.701 137.851C361.487 138.598 361.56 139.399 361.905 140.095C362.25 140.792 362.843 141.335 363.568 141.617C364.292 141.9 365.096 141.902 365.822 141.623C366.547 141.344 367.143 140.804 367.491 140.108C367.529 140.014 367.559 139.917 367.582 139.817L368.856 140.309C368.805 140.395 368.761 140.486 368.726 140.58C368.511 141.328 368.584 142.128 368.929 142.825C369.275 143.522 369.868 144.064 370.592 144.347C371.316 144.629 372.12 144.631 372.846 144.352C373.572 144.073 374.167 143.533 374.516 142.838C374.573 142.7 374.613 142.555 374.636 142.407L378.75 144.012C379.317 144.229 379.789 144.637 380.085 145.166L380.456 144.955C380.111 144.343 379.565 143.868 378.911 143.611ZM363.738 141.182C363.101 140.975 362.57 140.525 362.262 139.929C361.954 139.334 361.893 138.641 362.092 138.001C362.474 136.998 363.387 136.887 365.103 137.57C366.819 138.252 367.441 138.965 367.06 139.948C366.774 140.544 366.268 141.006 365.648 141.237C365.029 141.467 364.344 141.447 363.738 141.182V141.182ZM370.763 143.912C370.126 143.707 369.596 143.258 369.288 142.665C368.979 142.071 368.918 141.379 369.117 140.741C369.508 139.737 370.411 139.617 372.127 140.299C373.843 140.982 374.466 141.694 374.084 142.677C373.801 143.276 373.295 143.739 372.674 143.97C372.054 144.2 371.368 144.18 370.763 143.912V143.912Z" fill="#263238"/>
<path d="M129.451 150.766C129.451 150.766 121.333 151.368 116.908 160.67C112.482 169.973 109.462 187.444 119.918 187.905C130.375 188.367 129.431 185.808 129.431 185.808V181.152L122.718 179.145C122.384 179.044 122.073 178.876 121.805 178.652C121.537 178.428 121.318 178.152 121.159 177.841C121.001 177.529 120.907 177.189 120.883 176.841C120.86 176.492 120.907 176.143 121.022 175.813L124.554 165.778L129.451 150.766Z" fill="#576E97"/>
<path opacity="0.2" d="M129.451 150.766C129.451 150.766 121.333 151.368 116.908 160.67C112.482 169.973 109.462 187.444 119.918 187.905C130.375 188.367 129.431 185.808 129.431 185.808V181.152L122.718 179.145C122.384 179.044 122.073 178.876 121.805 178.652C121.537 178.428 121.318 178.152 121.159 177.841C121.001 177.529 120.907 177.189 120.883 176.841C120.86 176.492 120.907 176.143 121.022 175.813L124.554 165.778L129.451 150.766Z" fill="black"/>
<path d="M150.595 126.652C150.936 126.591 151.287 126.953 151.398 127.465C151.508 127.976 151.318 128.468 150.976 128.468C150.635 128.468 150.284 128.177 150.174 127.665C150.063 127.153 150.254 126.712 150.595 126.652Z" fill="#263238"/>
<path d="M151.579 133.465C152.024 133.48 152.467 133.398 152.878 133.225C153.288 133.051 153.657 132.791 153.957 132.462C152.663 131.313 151.532 129.993 150.595 128.538L151.579 133.465Z" fill="#EC837E"/>
<path d="M147.926 125.167C148.176 124.867 148.494 124.632 148.854 124.48C149.213 124.329 149.604 124.265 149.993 124.293V124.293C150.026 124.304 150.061 124.304 150.093 124.293C150.176 124.293 150.255 124.261 150.313 124.202C150.372 124.144 150.404 124.065 150.404 123.982C150.406 123.941 150.399 123.9 150.384 123.862C150.368 123.823 150.346 123.788 150.316 123.759C150.287 123.73 150.252 123.707 150.214 123.692C150.176 123.677 150.135 123.67 150.093 123.671C149.608 123.613 149.116 123.675 148.66 123.849C148.203 124.024 147.797 124.308 147.474 124.675C147.423 124.733 147.394 124.808 147.394 124.886C147.396 124.968 147.43 125.047 147.487 125.107C147.545 125.166 147.622 125.202 147.705 125.207C147.781 125.217 147.858 125.203 147.926 125.167Z" fill="#263238"/>
<path d="M145.788 142.698C144.845 146.42 144.785 151.037 148.869 152.301C148.869 152.301 153.947 156.556 144.173 156.556C135.302 156.556 133.987 151.709 133.987 151.709C137.339 148.508 136.767 141.895 135.834 137.108L145.788 142.698Z" fill="#FFC2BC"/>
<path d="M130.365 150.886C130.365 150.886 131.97 146.631 134.158 145.367C136.345 144.102 145.537 145.989 146.962 146.621C148.387 147.253 149.692 150.635 149.692 150.635L130.365 150.886Z" fill="#576E97"/>
<path opacity="0.2" d="M130.365 150.886C130.365 150.886 131.97 146.631 134.158 145.367C136.345 144.102 145.537 145.989 146.962 146.621C148.387 147.253 149.692 150.635 149.692 150.635L130.365 150.886Z" fill="black"/>
<path d="M144.363 348.154C144.332 348.149 144.303 348.135 144.28 348.113C144.258 348.091 144.243 348.062 144.237 348.031C144.232 348 144.236 347.968 144.25 347.94C144.263 347.911 144.285 347.888 144.313 347.873C144.433 347.813 146.721 346.518 147.805 346.809C147.909 346.833 148.006 346.878 148.092 346.94C148.178 347.002 148.251 347.08 148.307 347.17C148.375 347.269 148.412 347.387 148.412 347.507C148.412 347.627 148.375 347.744 148.307 347.843C148.036 348.224 147.303 348.345 146.38 348.345C145.704 348.336 145.029 348.272 144.363 348.154ZM147.374 347.06C146.472 347.169 145.599 347.452 144.805 347.893C146.019 348.064 147.675 348.054 147.976 347.632C148.046 347.572 148.076 347.481 147.976 347.291C147.944 347.236 147.901 347.188 147.849 347.152C147.797 347.115 147.737 347.091 147.675 347.08C147.575 347.06 147.473 347.06 147.374 347.08V347.06Z" fill="#576E97"/>
<path d="M144.303 348.124C144.264 348.087 144.239 348.037 144.233 347.983C144.277 347.055 144.63 346.169 145.236 345.465C145.356 345.362 145.495 345.286 145.645 345.239C145.795 345.193 145.953 345.177 146.109 345.194C146.541 345.244 146.691 345.465 146.691 345.635C146.812 346.398 145.246 347.783 144.454 348.144H144.393C144.362 348.144 144.332 348.137 144.303 348.124V348.124ZM146.029 345.495C145.926 345.494 145.824 345.514 145.73 345.554C145.635 345.594 145.549 345.652 145.477 345.726C144.987 346.289 144.682 346.99 144.604 347.733C145.417 347.241 146.471 346.127 146.4 345.726C146.4 345.726 146.4 345.555 146.099 345.555H146.009L146.029 345.495Z" fill="#576E97"/>
<path d="M137.881 332.851H144.413L143.761 347.983H137.228L137.881 332.851Z" fill="#FFC2BC"/>
<path d="M145.297 347.742C149.712 350.462 151.077 350.582 156.185 351.756C157.309 351.997 156.566 354.707 153.887 354.707C149.451 354.707 148.99 354.506 145.206 354.506C141.965 354.506 138.252 354.646 135.673 354.697C135.597 354.707 135.519 354.707 135.442 354.697C135.199 354.639 134.988 354.488 134.856 354.275C134.725 354.062 134.683 353.806 134.74 353.563L136.024 347.762C136.054 347.635 136.125 347.521 136.227 347.439C136.329 347.357 136.455 347.312 136.586 347.311H143.721C144.276 347.307 144.821 347.456 145.297 347.742V347.742Z" fill="#263238"/>
<path d="M153.234 150.786C146.74 150.303 140.226 150.152 133.716 150.334C132.01 150.455 130.314 150.625 128.628 150.836C127.787 150.943 126.975 151.219 126.242 151.648C125.51 152.076 124.871 152.648 124.365 153.33C123.859 154.011 123.496 154.788 123.297 155.613C123.099 156.438 123.069 157.294 123.21 158.131C127.083 181.352 125.136 204.132 124.604 208.708L159.516 208.377C163.169 179.636 162.195 165.146 160.791 158.111C160.423 156.268 159.504 154.58 158.154 153.271C156.804 151.963 155.088 151.096 153.234 150.786V150.786Z" fill="#576E97"/>
<path opacity="0.1" d="M153.234 150.786C146.74 150.303 140.226 150.152 133.716 150.334C132.01 150.455 130.314 150.625 128.628 150.836C127.787 150.943 126.975 151.219 126.242 151.648C125.51 152.076 124.871 152.648 124.365 153.33C123.859 154.011 123.496 154.788 123.297 155.613C123.099 156.438 123.069 157.294 123.21 158.131C127.083 181.352 125.136 204.132 124.604 208.708L159.516 208.377C163.169 179.636 162.195 165.146 160.791 158.111C160.423 156.268 159.504 154.58 158.154 153.271C156.804 151.963 155.088 151.096 153.234 150.786V150.786Z" fill="black"/>
<path opacity="0.2" d="M137.871 332.86L137.54 340.658H144.082L144.414 332.86H137.871Z" fill="black"/>
<path d="M132.552 126.06C132.997 123.754 134.338 121.72 136.282 120.403C138.225 119.086 140.612 118.594 142.918 119.035C149.642 120.3 152.421 129.532 152.221 135.513C152.02 142.146 144.745 146.641 138.934 142.728C135.071 140.119 134.399 136.376 132.723 130.114C132.357 128.793 132.299 127.406 132.552 126.06V126.06Z" fill="#FFC2BC"/>
<path d="M125.116 206.289C125.116 206.289 118.423 227.734 113.245 249.56C106.491 277.969 90.2146 336.172 90.2146 336.172L101.735 338.711C101.735 338.711 125.498 271.035 131.739 250.634C137.449 232.009 147.665 206.309 147.665 206.309L125.116 206.289Z" fill="#263238"/>
<path opacity="0.3" d="M139.025 230.142C128.749 258.09 126.571 266.479 126.421 267.021C127.665 250.012 132.783 231.036 139.025 230.142C138.603 230.012 139.486 230.072 139.025 230.142Z" fill="black"/>
<path d="M137.078 206.289C137.078 206.289 136.315 230.062 135.834 252.25C135.382 272.611 135.834 339.153 135.834 339.153H146.872C146.872 339.153 155.372 271.266 157.619 250.564C159.797 230.674 160.028 206.289 160.028 206.289H137.078Z" fill="#263238"/>
<path d="M134.198 335.239L134.569 339.333H148.026C148.026 339.333 148.698 334.737 148.648 334.737L134.198 335.239Z" fill="#576E97"/>
<path d="M89.8934 348.084C89.8825 348.112 89.8632 348.136 89.8382 348.154C89.8131 348.171 89.7834 348.18 89.7529 348.18C89.7225 348.18 89.6928 348.171 89.6677 348.154C89.6426 348.136 89.6234 348.112 89.6125 348.084C89.5522 347.973 88.2678 345.675 88.609 344.591C88.661 344.387 88.7905 344.21 88.9702 344.1C89.0706 344.031 89.1896 343.994 89.3114 343.994C89.4332 343.994 89.5522 344.031 89.6526 344.1C90.0239 344.381 90.1343 345.153 90.1343 346.026C90.1121 346.718 90.0316 347.406 89.8934 348.084V348.084ZM88.8297 345.023C88.9215 345.923 89.191 346.796 89.6225 347.592C89.8031 346.378 89.8031 344.732 89.3816 344.421C89.3816 344.351 89.2412 344.32 89.0405 344.421C88.9841 344.453 88.9359 344.498 88.8994 344.552C88.863 344.606 88.8391 344.667 88.8297 344.732C88.8097 344.828 88.8097 344.927 88.8297 345.023V345.023Z" fill="#576E97"/>
<path d="M89.8833 348.144C89.8674 348.166 89.846 348.183 89.8212 348.193C89.7965 348.204 89.7695 348.207 89.7428 348.204C88.8184 348.157 87.9359 347.804 87.234 347.201C87.1336 347.08 87.0586 346.941 87.0138 346.791C86.9689 346.641 86.9551 346.483 86.9731 346.328C86.9731 345.906 87.234 345.766 87.4147 345.766C88.1573 345.645 89.5521 347.221 89.9033 348.003V348.064C89.9049 348.092 89.8979 348.12 89.8833 348.144V348.144ZM87.3043 346.428C87.3157 346.628 87.3934 346.819 87.5251 346.97C88.0888 347.46 88.7894 347.764 89.5321 347.843C89.0504 347.03 87.9465 345.966 87.5251 346.036C87.5251 346.036 87.3545 346.037 87.3545 346.338V346.428H87.3043Z" fill="#576E97"/>
<path d="M92.7432 335.54L99.1155 336.021L96.1752 348.535L89.793 348.084L92.7432 335.54Z" fill="#FFC2BC"/>
<path opacity="0.2" d="M92.8237 335.188L91.5292 340.698L97.9014 341.149L99.2059 335.63L92.8237 335.188Z" fill="black"/>
<path d="M88.308 347.211C86.592 349.218 85.6788 350.291 80.6914 351.867C79.5876 352.208 80.571 354.877 83.2504 354.607C87.6657 354.215 85.2574 354.225 88.9904 353.884C92.2116 353.603 95.9245 353.422 98.4935 353.242C98.5802 353.251 98.6677 353.251 98.7544 353.242C98.9859 353.153 99.1764 352.982 99.2894 352.762C99.4025 352.542 99.4299 352.287 99.3665 352.048L97.5703 346.368C97.5317 346.244 97.4517 346.138 97.3438 346.067C97.236 345.996 97.1069 345.964 96.9782 345.976L89.8734 346.609C89.2927 346.596 88.7303 346.812 88.308 347.211V347.211Z" fill="#263238"/>
<path d="M88.8399 334.015L88.7697 338.179L102.628 339.664C102.628 339.664 103.812 335.169 103.762 335.169L88.8399 334.015Z" fill="#576E97"/>
<path d="M134.71 117.69C138.021 116.416 138.513 116.115 140.45 113.134C141.523 111.469 141.373 110.014 144.634 109.482C146.373 109.186 148.16 109.505 149.688 110.386C151.217 111.266 152.39 112.652 153.006 114.305C153.622 115.958 153.642 117.773 153.062 119.439C152.483 121.105 151.341 122.516 149.832 123.43C148.126 124.484 150.655 121.935 148.829 122.708C147.003 123.48 147.384 122.597 147.273 124.604C147.183 126.14 148.116 127.525 148.718 128.95C149.321 130.375 149.461 132.291 148.207 133.194C148.558 132.02 145.698 135.201 145.808 136.446C146.109 139.838 143.099 142.948 139.737 143.41C132.331 144.413 127.464 135.824 125.327 129.913C122.427 122.045 126.892 120.691 134.71 117.69Z" fill="#263238"/>
<path d="M146.812 127.364C148.668 127.926 149.612 130.686 149.682 132.432C149.742 134.358 148.448 135.563 146.782 134.258C145.525 133.25 144.633 131.858 144.243 130.294C143.811 128.448 144.955 126.792 146.812 127.364Z" fill="#FFC2BC"/>
<path opacity="0.1" d="M153.324 151.318C155.236 151.215 157.13 151.735 158.722 152.798C160.314 153.862 161.518 155.413 162.155 157.218C164.012 161.935 167.705 172.411 169.591 177.81C169.69 178.097 169.872 178.349 170.113 178.535C170.354 178.72 170.644 178.831 170.947 178.854C171.25 178.876 171.553 178.809 171.819 178.661C172.084 178.513 172.301 178.29 172.441 178.021L174.96 173.274C174.96 173.274 178.683 173.977 180.078 177.228C181.473 180.479 173.053 189.35 168.678 189.33C163.761 189.33 157.379 177.288 155.633 171.799C153.516 165.192 152.732 158.23 153.324 151.318V151.318Z" fill="white"/>
<path d="M174.96 174.81L177.84 169.923C177.84 169.923 176.214 166.912 177.278 164.905C178.342 162.898 179.395 164.524 180.429 163.902C181.463 163.279 183.781 159.035 184.895 161.172C186.008 163.309 187.393 167.002 181.653 171.368L178.552 179.155L174.96 174.81Z" fill="#FFC2BC"/>
<path d="M175.392 172.752C176.652 173.021 177.813 173.632 178.749 174.517C179.686 175.402 180.361 176.527 180.7 177.77V177.87C180.78 178.322 181.342 181.663 180.7 181.724C180.058 181.784 179.135 178.583 173.856 175.803C173.78 175.763 173.713 175.708 173.659 175.642C173.604 175.575 173.564 175.499 173.539 175.417C173.515 175.334 173.507 175.248 173.517 175.163C173.527 175.077 173.553 174.995 173.595 174.92L174.729 173.053C174.793 172.939 174.892 172.848 175.011 172.794C175.13 172.74 175.264 172.725 175.392 172.752Z" fill="#576E97"/>
<path d="M175.392 172.752C176.652 173.021 177.813 173.632 178.749 174.517C179.686 175.402 180.361 176.527 180.7 177.77V177.87C180.78 178.322 181.342 181.663 180.7 181.724C180.058 181.784 179.135 178.583 173.856 175.803C173.78 175.763 173.713 175.708 173.659 175.642C173.604 175.575 173.564 175.499 173.539 175.417C173.515 175.334 173.507 175.248 173.517 175.163C173.527 175.077 173.553 174.995 173.595 174.92L174.729 173.053C174.793 172.939 174.892 172.848 175.011 172.794C175.13 172.74 175.264 172.725 175.392 172.752Z" fill="#576E97"/>
<path d="M153.324 151.318C155.236 151.215 157.13 151.735 158.722 152.798C160.314 153.862 161.518 155.413 162.155 157.218C164.012 161.935 167.705 172.411 169.591 177.81C169.69 178.097 169.872 178.349 170.113 178.535C170.354 178.72 170.644 178.831 170.947 178.854C171.25 178.876 171.553 178.809 171.819 178.661C172.084 178.513 172.301 178.29 172.441 178.021L174.96 173.274C174.96 173.274 178.683 173.977 180.078 177.228C181.473 180.479 173.053 189.35 168.678 189.33C163.761 189.33 157.379 177.288 155.633 171.799C153.516 165.192 152.732 158.23 153.324 151.318V151.318Z" fill="#576E97"/>
<path opacity="0.1" d="M153.324 151.318C155.236 151.215 157.13 151.735 158.722 152.798C160.314 153.862 161.518 155.413 162.155 157.218C164.012 161.935 167.705 172.411 169.591 177.81C169.69 178.097 169.872 178.349 170.113 178.535C170.354 178.72 170.644 178.831 170.947 178.854C171.25 178.876 171.553 178.809 171.819 178.661C172.084 178.513 172.301 178.29 172.441 178.021L174.96 173.274C174.96 173.274 178.683 173.977 180.078 177.228C181.473 180.479 173.053 189.35 168.678 189.33C163.761 189.33 157.379 177.288 155.633 171.799C153.516 165.192 152.732 158.23 153.324 151.318V151.318Z" fill="white"/>
</svg>
