<svg width="372" height="393" viewBox="0 0 372 393" fill="none" xmlns="http://www.w3.org/2000/svg">
<path d="M220.694 224.86C220.761 224.921 220.826 224.986 220.887 225.053L221.44 225.625L223.571 227.882L231.613 236.495L260.106 267.218H259.777L292.098 230.198L292.32 229.946L292.505 230.227L294.859 233.773L319.313 270.589L318.973 270.531L342.478 251.755L342.613 251.648L342.73 251.774L360.673 272.12L365.517 277.671L366.776 279.125C367.057 279.454 367.193 279.629 367.193 279.629C367.193 279.629 367.028 279.474 366.738 279.163L365.459 277.671L360.518 272.188L342.458 251.987H342.71L319.264 270.89L319.07 271.045L318.925 270.831L294.442 234.073L292.078 230.518H292.475C280.714 243.985 269.649 256.628 260.116 267.537L259.951 267.721L259.787 267.537C248.083 254.807 238.288 244.169 231.419 236.689L223.474 227.97L221.391 225.664C221.168 225.402 220.994 225.208 220.858 225.063C220.723 224.918 220.684 224.869 220.694 224.86Z" fill="#E6E6E6"/>
<path d="M256.764 267.469C256.758 268.143 256.953 268.802 257.323 269.364C257.693 269.926 258.223 270.365 258.843 270.626C259.464 270.886 260.148 270.956 260.809 270.826C261.469 270.696 262.076 270.372 262.552 269.896C263.028 269.42 263.352 268.813 263.482 268.153C263.612 267.492 263.542 266.808 263.282 266.187C263.022 265.567 262.582 265.037 262.02 264.667C261.458 264.297 260.799 264.102 260.126 264.108C259.236 264.113 258.383 264.468 257.754 265.098C257.125 265.727 256.769 266.579 256.764 267.469V267.469Z" fill="#E0E0E0"/>
<path d="M316.125 271.51C316.129 272.181 316.332 272.835 316.708 273.391C317.084 273.947 317.617 274.378 318.238 274.631C318.86 274.884 319.543 274.947 320.2 274.811C320.857 274.676 321.46 274.349 321.931 273.871C322.402 273.393 322.721 272.786 322.847 272.127C322.972 271.468 322.9 270.786 322.638 270.168C322.377 269.55 321.938 269.023 321.377 268.655C320.816 268.287 320.158 268.094 319.487 268.099C318.589 268.107 317.731 268.47 317.101 269.11C316.471 269.749 316.12 270.612 316.125 271.51Z" fill="#E0E0E0"/>
<path d="M339.213 252.84C339.218 253.509 339.422 254.161 339.799 254.713C340.175 255.266 340.707 255.695 341.327 255.946C341.947 256.196 342.627 256.257 343.282 256.121C343.937 255.985 344.536 255.658 345.005 255.181C345.474 254.704 345.791 254.099 345.916 253.442C346.04 252.785 345.968 252.106 345.706 251.49C345.445 250.874 345.007 250.35 344.448 249.983C343.889 249.617 343.234 249.424 342.565 249.43C341.669 249.44 340.813 249.804 340.185 250.443C339.557 251.082 339.207 251.944 339.213 252.84V252.84Z" fill="#E0E0E0"/>
<path d="M288.9 230.653C288.904 231.324 289.107 231.979 289.483 232.535C289.86 233.091 290.392 233.522 291.014 233.775C291.636 234.028 292.318 234.09 292.976 233.955C293.633 233.82 294.235 233.492 294.706 233.014C295.177 232.536 295.496 231.929 295.622 231.27C295.748 230.611 295.676 229.929 295.414 229.312C295.152 228.694 294.713 228.167 294.152 227.799C293.591 227.431 292.933 227.237 292.262 227.243C291.365 227.251 290.507 227.614 289.877 228.253C289.246 228.892 288.895 229.756 288.9 230.653V230.653Z" fill="#E0E0E0"/>
<path d="M364.519 279.725C364.523 280.396 364.726 281.051 365.102 281.607C365.478 282.163 366.011 282.594 366.632 282.847C367.254 283.1 367.937 283.163 368.594 283.027C369.251 282.892 369.854 282.564 370.325 282.086C370.796 281.609 371.114 281.002 371.24 280.342C371.366 279.683 371.294 279.002 371.032 278.384C370.771 277.766 370.332 277.239 369.77 276.871C369.209 276.503 368.552 276.309 367.881 276.315C366.983 276.323 366.125 276.686 365.495 277.325C364.865 277.965 364.514 278.828 364.519 279.725V279.725Z" fill="#E0E0E0"/>
<path d="M67.5286 23.1555H45.7586V109.741H67.5286V23.1555Z" fill="#E6E6E6"/>
<path d="M99.549 42.0382H77.7791V109.732H99.549V42.0382Z" fill="#E6E6E6"/>
<path d="M132.064 57.5011H110.294V109.732H132.064V57.5011Z" fill="#E6E6E6"/>
<path d="M162.166 78.7189H140.396V109.741H162.166V78.7189Z" fill="#E6E6E6"/>
<path d="M144.736 1.55005C144.736 1.55005 144.533 1.81164 144.135 2.27668L142.324 4.35971L135.435 12.2074L110.594 40.3039L110.458 40.4492L110.303 40.333L94.0944 27.9124H94.4238L71.7528 56.6484L71.4815 56.9971L71.3168 57.2103L71.1133 57.0262L40.585 30.0632H40.9241C28.9394 45.7973 18.7859 59.2352 11.5196 68.7396L3.06155 79.7941L0.804145 82.7006L0.213147 83.4466C0.147184 83.5348 0.0760069 83.6189 0 83.6985C0.055035 83.604 0.116544 83.5133 0.184083 83.4273L0.746009 82.6522L2.94529 79.6778L11.2871 68.5458L40.5462 29.7338L40.7013 29.5303L40.8853 29.695L71.4524 56.5902H71.0843L71.3556 56.2414L94.0556 27.5248L94.201 27.3407L94.385 27.4861L110.565 39.897H110.274L135.241 12.0233C138.254 8.68076 140.618 6.05519 142.236 4.27251L144.087 2.23793C144.513 1.75351 144.736 1.55005 144.736 1.55005Z" fill="#E6E6E6"/>
<path d="M141.142 21.6343C141.134 21.4873 141.15 21.3401 141.19 21.1984L141.432 19.9582C141.684 18.8053 142.023 17.2745 142.401 15.4047C143.263 11.5293 144.484 6.23937 145.889 0.310031L146.199 0.600684L145.104 0.939779C139.029 2.80965 133.526 4.46638 129.535 5.64837L124.797 7.01445L123.499 7.36323C123.35 7.41875 123.193 7.44824 123.034 7.45043C123.173 7.37493 123.319 7.31327 123.47 7.26635L124.739 6.83037L129.428 5.30928C133.391 4.04009 138.884 2.32523 144.93 0.465046L146.025 0.135638L146.451 0L146.344 0.435978C144.998 6.39438 143.767 11.6649 142.798 15.4919C142.324 17.3424 141.936 18.8634 141.655 20.0067C141.519 20.4814 141.403 20.8883 141.316 21.2177C141.279 21.3644 141.22 21.5048 141.142 21.6343V21.6343Z" fill="#E6E6E6"/>
<path d="M312.879 147.953C317.205 147.882 321.455 149.096 325.091 151.441C328.727 153.786 331.586 157.156 333.307 161.126C335.028 165.095 335.532 169.486 334.758 173.743C333.983 177.999 331.964 181.931 328.955 185.04C325.946 188.149 322.083 190.296 317.854 191.21C313.625 192.123 309.221 191.762 305.197 190.173C301.173 188.583 297.711 185.836 295.248 182.278C292.785 178.721 291.433 174.514 291.361 170.188C291.273 164.388 293.489 158.789 297.523 154.621C301.557 150.453 307.08 148.055 312.879 147.953V147.953ZM313.402 180.293C315.471 180.254 317.481 179.603 319.18 178.423C320.878 177.242 322.188 175.585 322.945 173.659C323.702 171.734 323.871 169.628 323.432 167.607C322.992 165.586 321.963 163.74 320.475 162.303C318.987 160.867 317.106 159.903 315.071 159.535C313.035 159.166 310.936 159.409 309.039 160.234C307.142 161.058 305.531 162.425 304.411 164.164C303.291 165.903 302.711 167.935 302.745 170.004C302.769 171.379 303.064 172.736 303.612 173.998C304.161 175.259 304.953 176.4 305.942 177.356C306.932 178.311 308.1 179.062 309.38 179.566C310.66 180.07 312.027 180.317 313.402 180.293V180.293Z" fill="#E0E0E0"/>
<path d="M312.841 145.23C319.364 145.137 325.659 147.634 330.345 152.174C335.03 156.715 337.725 162.928 337.837 169.451L322.917 169.839C322.82 163.357 318.431 160.722 313.228 160.393C311.95 160.316 310.669 160.505 309.467 160.948C308.265 161.39 307.168 162.077 306.244 162.964C305.321 163.851 304.591 164.92 304.1 166.103C303.61 167.286 303.369 168.558 303.394 169.839L288.629 170.236C288.528 163.711 291.021 157.412 295.561 152.723C300.1 148.035 306.315 145.34 312.841 145.23Z" fill="#F0F0F0"/>
<path d="M135.735 244.353C143.267 236.45 153.6 231.819 164.511 231.456C175.422 231.094 186.04 235.029 194.079 242.415C198.029 246.055 201.216 250.442 203.457 255.323C205.698 260.204 206.948 265.481 207.135 270.848C207.321 276.216 206.441 281.567 204.544 286.592C202.647 291.616 199.772 296.214 196.085 300.12C188.553 308.023 178.22 312.654 167.309 313.016C156.398 313.378 145.78 309.443 137.741 302.057C133.792 298.417 130.604 294.03 128.363 289.149C126.122 284.268 124.872 278.991 124.686 273.624C124.499 268.256 125.38 262.905 127.276 257.881C129.173 252.856 132.048 248.258 135.735 244.353V244.353ZM180.302 285.567C182.07 283.701 183.449 281.502 184.358 279.098C185.267 276.693 185.689 274.132 185.599 271.563C185.509 268.994 184.908 266.469 183.833 264.135C182.757 261.8 181.228 259.703 179.334 257.965C175.485 254.438 170.406 252.563 165.189 252.744C159.972 252.925 155.035 255.148 151.44 258.934C149.673 260.8 148.294 262.999 147.385 265.404C146.476 267.808 146.054 270.369 146.144 272.938C146.234 275.507 146.835 278.032 147.91 280.367C148.986 282.701 150.515 284.799 152.409 286.536C156.257 290.072 161.341 291.952 166.564 291.771C171.787 291.59 176.728 289.361 180.322 285.567H180.302Z" fill="#F5F5F5"/>
<path d="M135.735 244.353C143.267 236.45 153.6 231.819 164.511 231.456C175.422 231.094 186.04 235.029 194.079 242.415L179.372 257.994C175.524 254.467 170.445 252.592 165.228 252.773C160.01 252.954 155.073 255.177 151.479 258.963C149.712 260.829 148.333 263.028 147.424 265.433C146.514 267.837 146.093 270.398 146.183 272.967C146.273 275.536 146.873 278.061 147.949 280.396C149.025 282.73 150.554 284.828 152.448 286.565L137.722 302.086C133.769 298.445 130.58 294.055 128.338 289.17C126.096 284.286 124.846 279.006 124.661 273.635C124.477 268.264 125.36 262.91 127.261 257.883C129.162 252.856 132.043 248.257 135.735 244.353V244.353Z" fill="#E0E0E0"/>
<path d="M192.394 235.72C212.739 254.545 215.21 285.132 196.172 305.322L175.507 287.505C184.604 277.865 186.581 264.989 176.844 255.989L192.394 235.72Z" fill="#EBEBEB"/>
<path d="M173.356 288.784L185.631 313.063C190.707 311.203 195.281 308.188 198.991 304.257L176.941 286.449L173.356 288.784Z" fill="#E0E0E0"/>
<path d="M219.667 64.6705C219.488 53.7876 222.541 43.0961 228.439 33.9486C234.338 24.8012 242.817 17.6088 252.804 13.2812C262.791 8.95373 273.838 7.68558 284.546 9.63723C295.254 11.5889 305.142 16.6727 312.96 24.2454C320.778 31.8181 326.175 41.5395 328.467 52.1798C330.759 62.8202 329.844 73.9012 325.837 84.0212C321.83 94.1412 314.912 102.845 305.957 109.033C297.002 115.22 286.413 118.612 275.53 118.781C260.954 118.988 246.89 113.409 236.419 103.267C225.948 93.1249 219.924 79.2458 219.667 64.6705V64.6705ZM300.982 63.3625C300.897 58.161 299.272 53.1015 296.311 48.8238C293.351 44.546 289.189 41.2421 284.351 39.3297C279.513 37.4174 274.216 36.9826 269.131 38.0802C264.046 39.1778 259.401 41.7585 255.782 45.4962C252.164 49.2338 249.735 53.9604 248.803 59.0784C247.871 64.1964 248.477 69.4758 250.545 74.2493C252.613 79.0227 256.05 83.0757 260.422 85.8959C264.793 88.716 269.903 90.1766 275.104 90.093C282.078 89.9732 288.72 87.0913 293.571 82.0799C298.423 77.0684 301.088 70.3369 300.982 63.3625V63.3625Z" fill="#FAFAFA"/>
<path d="M219.667 64.6705C219.446 50.0846 225.022 36.0072 235.171 25.5282C245.319 15.0493 259.211 9.02499 273.796 8.77771L274.261 37.4846C267.285 37.5964 260.639 40.4749 255.785 45.487C250.931 50.499 248.267 57.234 248.378 64.2103C248.49 71.1866 251.369 77.8327 256.381 82.6867C261.393 87.5407 268.128 90.2048 275.104 90.093L275.53 118.781C260.953 118.993 246.886 113.416 236.414 103.273C225.941 93.1295 219.919 79.2475 219.667 64.6705V64.6705Z" fill="#E0E0E0"/>
<path d="M268.855 4.35985C304.344 3.78823 332.663 31.2066 333.225 66.6954L299.635 67.238C299.364 50.2638 286.391 39.5774 269.427 39.8584L268.855 4.35985Z" fill="#F0F0F0"/>
<path d="M333.661 391.927C333.661 392.063 261.22 392.179 171.864 392.179C82.5069 392.179 10.0663 392.063 10.0663 391.927C10.0663 391.792 82.4876 391.666 171.864 391.666C261.24 391.666 333.661 391.782 333.661 391.927Z" fill="#263238"/>
<path d="M109.344 257.587L288.871 256.299V258.818L109.344 260.426V257.587Z" fill="#263238"/>
<path d="M105.43 75.0663L109.518 259.089L288.871 257.694V71.9757L105.43 75.0663Z" fill="white"/>
<path d="M105.43 75.0663L288.871 71.7626H289.094V71.9854C289.094 125.146 289.094 187.879 289.094 254.807V257.955H288.842L109.489 259.322H109.276V259.108C106.961 148.815 105.449 76.9653 105.401 75.076C105.401 76.9362 107.125 148.815 109.703 259.089L109.489 258.876L288.842 257.452L288.59 257.704V254.797C288.59 187.869 288.59 125.136 288.59 71.9757L288.813 72.1986L105.43 75.0663Z" fill="#263238"/>
<path d="M104.713 76.2967L289.656 75.2407L289.889 67.4802L104.713 68.6331V76.2967Z" fill="#263238"/>
<path d="M193.246 264.108C192.936 264.108 192.607 262.664 192.519 260.862C192.432 259.06 192.626 257.587 192.936 257.568C193.246 257.549 193.576 259.002 193.663 260.804C193.75 262.606 193.566 264.108 193.246 264.108Z" fill="#263238"/>
<path d="M193.178 262.78C193.178 262.713 193.488 262.693 193.973 262.887C194.265 263.01 194.539 263.173 194.787 263.371C195.12 263.639 195.399 263.968 195.61 264.34C195.898 264.855 196.042 265.437 196.028 266.027C196.015 266.616 195.843 267.191 195.533 267.692C195.346 267.994 195.11 268.263 194.835 268.487C194.548 268.718 194.219 268.892 193.866 269C193.117 269.207 192.32 269.149 191.609 268.836C191.249 268.676 190.921 268.452 190.64 268.177C190.36 267.901 190.139 267.571 189.991 267.208C189.722 266.547 189.665 265.82 189.826 265.125C189.945 264.546 190.225 264.012 190.632 263.584C191.04 263.156 191.559 262.85 192.132 262.703C192.865 262.503 193.645 262.571 194.331 262.897C194.796 263.129 194.971 263.371 194.932 263.429C194.893 263.488 194.632 263.429 194.186 263.313C193.579 263.2 192.953 263.254 192.374 263.468C192.001 263.613 191.669 263.846 191.405 264.146C191.103 264.501 190.905 264.932 190.835 265.393C190.765 265.853 190.825 266.324 191.008 266.753C191.219 267.213 191.596 267.576 192.064 267.77C192.53 267.978 193.052 268.023 193.546 267.896C194.001 267.778 194.395 267.495 194.651 267.101C194.903 266.73 195.054 266.299 195.087 265.852C195.116 265.649 195.116 265.444 195.087 265.241C195.055 265.051 195 264.865 194.922 264.689C194.674 264.119 194.284 263.622 193.789 263.245C193.43 262.993 193.178 262.858 193.178 262.78Z" fill="#263238"/>
<path d="M219.86 175.768C219.86 175.768 219.86 175.768 219.744 175.768H219.415L218.136 175.826L213.204 176.04L195.068 176.718C179.75 177.28 158.581 178.026 135.212 178.83L127.171 179.101H126.987V178.917C125.359 157.535 123.886 138.371 122.869 124.594C122.365 117.715 121.968 112.183 121.687 108.375C121.561 106.438 121.455 104.994 121.387 103.996C121.387 103.492 121.329 103.114 121.319 102.853C121.309 102.591 121.319 102.63 121.319 102.562C121.319 102.494 121.319 102.465 121.319 102.465C121.323 102.497 121.323 102.53 121.319 102.562C121.319 102.63 121.319 102.727 121.319 102.853C121.319 102.979 121.377 103.492 121.426 103.986C121.503 104.955 121.629 106.457 121.794 108.366C122.094 112.173 122.54 117.705 123.092 124.565C124.177 138.303 125.669 157.418 127.316 178.888L127.122 178.714L135.164 178.433C158.532 177.638 179.731 176.931 195.019 176.446L213.166 175.885L218.097 175.749H219.376H219.822L219.86 175.768Z" fill="#455A64"/>
<path d="M154.919 96.5069V98.9774L180.477 97.7567V95.6833L154.919 96.5069Z" fill="#263238"/>
<path d="M135.571 173.656H144.455L143.06 149.542H134.35L135.571 173.656Z" fill="#576E97"/>
<path d="M151.673 173.666H160.548L159.162 139.96H150.452L151.673 173.666Z" fill="#576E97"/>
<path d="M166.748 172.59H175.632L174.237 128.459H165.537L166.748 172.59Z" fill="#576E97"/>
<path d="M201.336 170.875H210.211L208.825 110.729H200.115L201.336 170.875Z" fill="#576E97"/>
<path d="M184.507 171.079H193.382L191.987 119.323H183.286L184.507 171.079Z" fill="#576E97"/>
<path d="M129.99 143.292C129.758 142.934 145.627 132.354 165.421 119.662C185.214 106.97 201.472 96.9719 201.704 97.3788C201.937 97.7857 186.067 108.317 166.264 121.009C146.461 133.701 130.203 143.651 129.99 143.292Z" fill="#576E97"/>
<path d="M192.917 97.3401C192.839 96.9138 198.585 95.4799 205.773 94.1235L207.595 93.7844L206.558 95.3249L206.5 95.4121C202.392 101.516 198.749 106.273 198.41 106.069C198.071 105.866 201.104 100.692 205.192 94.5789L205.25 94.4917L206.045 95.6931C198.865 97.001 192.994 97.7567 192.917 97.3401Z" fill="#576E97"/>
<path d="M134.35 181.804H143.632L143.922 183.451H134.35V181.804Z" fill="#263238"/>
<path d="M150.782 181.126H160.063L160.354 182.773H150.782V181.126Z" fill="#263238"/>
<path d="M167.698 180.641H176.979L177.27 182.289H167.698V180.641Z" fill="#263238"/>
<path d="M183.548 180.244H192.83L193.12 181.901H183.548V180.244Z" fill="#263238"/>
<path d="M203.187 179.663H212.468L212.759 181.32H203.187V179.663Z" fill="#263238"/>
<path d="M244.818 245.331C261.181 245.331 274.445 232.067 274.445 215.704C274.445 199.341 261.181 186.077 244.818 186.077C228.455 186.077 215.191 199.341 215.191 215.704C215.191 232.067 228.455 245.331 244.818 245.331Z" fill="#576E97"/>
<path opacity="0.3" d="M244.818 245.331C261.181 245.331 274.445 232.067 274.445 215.704C274.445 199.341 261.181 186.077 244.818 186.077C228.455 186.077 215.191 199.341 215.191 215.704C215.191 232.067 228.455 245.331 244.818 245.331Z" fill="black"/>
<path d="M244.818 215.665L215.917 222.166C211.267 200.852 228.454 186.038 244.818 186.038" fill="#576E97"/>
<path d="M244.857 215.665L244.663 186.038C266.481 186.038 277.294 205.987 273.806 221.973L244.857 215.665Z" fill="#576E97"/>
<path d="M244.857 215.665L244.663 186.038C266.481 186.038 277.294 205.987 273.806 221.973L244.857 215.665Z" fill="#576E97"/>
<path opacity="0.1" d="M244.857 215.665L244.663 186.038C266.481 186.038 277.294 205.987 273.806 221.973L244.857 215.665Z" fill="black"/>
<path d="M275.211 145.55C274.635 145.165 274.021 144.84 273.379 144.581C271.59 144.034 269.671 144.088 267.915 144.736C265.648 145.443 263.4 147.245 261.22 149.503C259.041 151.76 256.706 154.492 253.295 156.091C251.65 156.909 249.798 157.216 247.976 156.973C246.333 156.632 244.745 156.064 243.258 155.287C241.949 154.605 240.549 154.112 239.102 153.824C237.842 153.626 236.553 153.787 235.381 154.289C233.657 155.021 232.247 156.338 231.399 158.009C231.127 158.637 230.904 159.285 230.731 159.947C230.761 159.246 230.929 158.558 231.225 157.922C232.036 156.158 233.462 154.749 235.236 153.959C236.451 153.418 237.793 153.227 239.111 153.407C240.607 153.685 242.055 154.174 243.413 154.86C244.862 155.612 246.407 156.16 248.005 156.488C249.729 156.703 251.477 156.406 253.034 155.636C256.308 154.105 258.605 151.392 260.843 149.173C263.081 146.955 265.396 145.085 267.75 144.397C269.579 143.759 271.57 143.759 273.399 144.397C273.887 144.585 274.346 144.839 274.765 145.153C274.929 145.266 275.079 145.4 275.211 145.55V145.55Z" fill="#263238"/>
<path d="M277.72 164.694C277.72 164.84 267.198 164.946 254.225 164.946C241.253 164.946 230.731 164.84 230.731 164.694C230.731 164.549 241.253 164.443 254.225 164.443C267.198 164.443 277.72 164.559 277.72 164.694Z" fill="#263238"/>
<path d="M275.104 164.694C274.968 164.694 274.852 158.707 274.852 151.315C274.852 143.922 274.968 137.944 275.104 137.944C275.24 137.944 275.356 143.932 275.356 151.315C275.356 158.697 275.249 164.694 275.104 164.694Z" fill="#263238"/>
<path d="M235.469 153.427C235.469 153.427 235.401 153.33 235.469 153.155C235.513 153.033 235.584 152.922 235.676 152.83C235.768 152.738 235.879 152.667 236.001 152.622C236.186 152.541 236.389 152.512 236.588 152.537C236.788 152.563 236.977 152.643 237.135 152.768C237.306 152.959 237.406 153.203 237.421 153.459C237.435 153.716 237.362 153.969 237.213 154.178C237.065 154.388 236.85 154.54 236.603 154.611C236.357 154.682 236.093 154.668 235.856 154.57C235.689 154.47 235.552 154.328 235.458 154.158C235.365 153.987 235.318 153.795 235.323 153.601C235.321 153.472 235.345 153.344 235.393 153.224C235.441 153.104 235.513 152.995 235.604 152.903C235.75 152.787 235.856 152.787 235.866 152.807C235.875 152.826 235.604 153.088 235.672 153.582C235.686 153.709 235.728 153.831 235.797 153.939C235.866 154.046 235.959 154.136 236.069 154.202C236.205 154.236 236.348 154.229 236.48 154.18C236.611 154.132 236.725 154.045 236.807 153.931C236.889 153.817 236.934 153.681 236.937 153.541C236.94 153.401 236.901 153.263 236.825 153.146C236.728 153.066 236.612 153.011 236.489 152.986C236.366 152.96 236.238 152.965 236.118 153C235.624 153.078 235.536 153.446 235.469 153.427Z" fill="#263238"/>
<path d="M267.15 143.709C267.15 143.709 267.15 143.593 267.324 143.496C267.55 143.383 267.81 143.362 268.051 143.438C268.242 143.49 268.415 143.593 268.552 143.737C268.689 143.88 268.783 144.058 268.826 144.252C268.841 144.501 268.771 144.749 268.628 144.954C268.485 145.16 268.277 145.311 268.038 145.384C267.798 145.457 267.541 145.447 267.308 145.355C267.075 145.264 266.879 145.097 266.753 144.881C266.683 144.695 266.665 144.492 266.701 144.296C266.736 144.1 266.825 143.917 266.956 143.767C267.12 143.574 267.353 143.452 267.605 143.428C267.78 143.428 267.867 143.486 267.857 143.515C267.847 143.544 267.489 143.564 267.247 143.98C267.18 144.084 267.138 144.202 267.124 144.325C267.111 144.448 267.126 144.572 267.169 144.688C267.254 144.792 267.369 144.869 267.498 144.908C267.627 144.947 267.765 144.947 267.894 144.908C268.023 144.868 268.137 144.791 268.222 144.686C268.307 144.582 268.359 144.454 268.371 144.319C268.345 144.199 268.291 144.086 268.214 143.99C268.136 143.894 268.037 143.818 267.925 143.767C267.499 143.554 267.198 143.777 267.15 143.709Z" fill="#263238"/>
<path d="M274.271 111.999C274.271 112.134 264.079 112.251 251.513 112.251C238.947 112.251 228.754 112.134 228.754 111.999C228.754 111.863 238.937 111.747 251.513 111.747C264.088 111.747 274.271 111.882 274.271 111.999Z" fill="#263238"/>
<path d="M274.271 118.345C274.271 118.49 264.079 118.596 251.513 118.596C238.947 118.596 228.754 118.49 228.754 118.345C228.754 118.199 238.937 118.093 251.513 118.093C264.088 118.093 274.271 118.209 274.271 118.345Z" fill="#263238"/>
<path d="M274.271 124.671C274.271 124.807 264.079 124.923 251.513 124.923C238.947 124.923 228.754 124.807 228.754 124.671C228.754 124.536 238.937 124.419 251.513 124.419C264.088 124.419 274.271 124.526 274.271 124.671Z" fill="#263238"/>
<path d="M274.271 130.988C274.271 131.133 264.079 131.24 251.513 131.24C238.947 131.24 228.754 131.133 228.754 130.988C228.754 130.843 238.937 130.736 251.513 130.736C264.088 130.736 274.271 130.852 274.271 130.988Z" fill="#263238"/>
<path d="M252.976 100.46H228.754V102.504H252.976V100.46Z" fill="#263238"/>
<path d="M152.991 201.956H128.769V204H152.991V201.956Z" fill="#263238"/>
<path d="M195.048 213.805C195.048 213.95 180.351 214.057 162.224 214.057C144.097 214.057 129.389 213.95 129.389 213.805C129.389 213.66 144.087 213.553 162.224 213.553C180.36 213.553 195.048 213.669 195.048 213.805Z" fill="#263238"/>
<path d="M195.436 219.541C195.436 219.676 180.477 219.793 162.03 219.793C143.583 219.793 128.624 219.676 128.624 219.541C128.624 219.405 143.573 219.289 162.03 219.289C180.486 219.289 195.436 219.424 195.436 219.541Z" fill="#263238"/>
<path d="M196.201 224.947C196.201 225.082 181.155 225.199 162.602 225.199C144.048 225.199 129.002 225.082 129.002 224.947C129.002 224.811 144.048 224.695 162.602 224.695C181.155 224.695 196.201 224.801 196.201 224.947Z" fill="#263238"/>
<path d="M163.948 230.702C163.948 230.837 156.197 230.954 146.664 230.954C137.131 230.954 129.389 230.837 129.389 230.702C129.389 230.566 137.14 230.45 146.664 230.45C156.188 230.45 163.948 230.566 163.948 230.702Z" fill="#263238"/>
<path d="M58.4408 387.539V378.819L42.0382 378.674L41.9026 391.492L42.8714 391.559C47.3959 391.84 65.8912 392.664 68.9237 391.773C72.3534 390.765 58.4408 387.539 58.4408 387.539Z" fill="#576E97"/>
<path d="M69.3597 390.968C69.3597 391.123 63.2269 391.249 55.6602 391.249C48.0935 391.249 41.951 391.123 41.951 390.968C41.951 390.813 48.0935 390.687 55.6602 390.687C63.2269 390.687 69.3597 390.813 69.3597 390.968Z" fill="#263238"/>
<path d="M58.7315 389.331C58.5958 389.253 58.7315 388.779 59.0609 388.362C59.3903 387.946 59.8456 387.674 59.9425 387.781C60.0394 387.887 59.8263 388.285 59.5065 388.75C59.1868 389.215 58.8671 389.408 58.7315 389.331Z" fill="#263238"/>
<path d="M59.7778 389.903C59.6325 389.844 59.71 389.321 60.0297 388.779C60.3495 388.236 60.7757 387.907 60.892 388.004C61.0083 388.101 60.8145 388.556 60.5142 389.06C60.2138 389.563 59.9231 389.961 59.7778 389.903Z" fill="#263238"/>
<path d="M46.8825 390.91C46.8147 390.959 46.5628 390.726 46.2043 390.339C45.7679 389.832 45.2846 389.368 44.7607 388.953C44.2382 388.569 43.6294 388.32 42.9877 388.227C42.4936 388.159 42.1739 388.227 42.1448 388.149C42.1158 388.072 42.4258 387.868 42.9974 387.829C43.7507 387.808 44.4889 388.044 45.0901 388.498C45.6632 388.937 46.1495 389.479 46.524 390.096C46.8243 390.552 46.96 390.862 46.8825 390.91Z" fill="#263238"/>
<path d="M58.7799 387.684C58.8574 387.81 58.5667 388.12 58.1017 388.285C57.6367 388.449 57.22 388.391 57.2007 388.236C57.1813 388.081 57.501 387.907 57.9176 387.761C58.3342 387.616 58.6927 387.548 58.7799 387.684Z" fill="#263238"/>
<path d="M58.5086 386.831C58.5086 386.986 58.0823 387.122 57.5398 387.132C56.9972 387.141 56.5709 387.015 56.5709 386.86C56.5709 386.705 57.0166 386.579 57.5398 386.57C58.0629 386.56 58.5086 386.676 58.5086 386.831Z" fill="#576E97"/>
<path d="M69.3597 390.968C69.3597 391.123 63.2269 391.249 55.6602 391.249C48.0935 391.249 41.951 391.123 41.951 390.968C41.951 390.813 48.0935 390.687 55.6602 390.687C63.2269 390.687 69.3597 390.813 69.3597 390.968Z" fill="#263238"/>
<path d="M58.7315 389.331C58.5958 389.253 58.7315 388.779 59.0609 388.362C59.3903 387.946 59.8456 387.674 59.9425 387.781C60.0394 387.887 59.8263 388.285 59.5065 388.75C59.1868 389.215 58.8671 389.408 58.7315 389.331Z" fill="#263238"/>
<path d="M59.7778 389.903C59.6325 389.844 59.71 389.321 60.0297 388.779C60.3495 388.236 60.7757 387.907 60.892 388.004C61.0083 388.101 60.8145 388.556 60.5142 389.06C60.2138 389.563 59.9231 389.961 59.7778 389.903Z" fill="#263238"/>
<path d="M46.8825 390.91C46.8147 390.959 46.5628 390.726 46.2043 390.339C45.7679 389.832 45.2846 389.368 44.7607 388.953C44.2382 388.569 43.6294 388.32 42.9877 388.227C42.4936 388.159 42.1739 388.227 42.1448 388.149C42.1158 388.072 42.4258 387.868 42.9974 387.829C43.7507 387.808 44.4889 388.044 45.0901 388.498C45.6632 388.937 46.1495 389.479 46.524 390.096C46.8243 390.552 46.96 390.862 46.8825 390.91Z" fill="#263238"/>
<path d="M58.7799 387.684C58.8574 387.81 58.5667 388.12 58.1017 388.285C57.6367 388.449 57.22 388.391 57.2007 388.236C57.1813 388.081 57.501 387.907 57.9176 387.761C58.3342 387.616 58.6927 387.548 58.7799 387.684Z" fill="#263238"/>
<path d="M58.5086 386.831C58.5086 386.986 58.0823 387.122 57.5398 387.132C56.9972 387.141 56.5709 387.015 56.5709 386.86C56.5709 386.705 57.0166 386.579 57.5398 386.57C58.0629 386.56 58.5086 386.676 58.5086 386.831Z" fill="#263238"/>
<path d="M75.7444 384.438L78.3312 376.077L62.6941 371.117L58.8187 383.314L59.7875 383.683C64.0214 385.291 81.4509 391.55 84.6094 391.598C88.0778 391.637 75.7444 384.438 75.7444 384.438Z" fill="#576E97"/>
<path d="M85.1616 390.939C85.1616 391.094 79.2128 389.399 71.9853 387.151C64.7577 384.903 58.9349 382.975 58.9833 382.83C59.0318 382.685 64.9224 384.38 72.1596 386.618C79.3969 388.856 85.21 390.794 85.1616 390.939Z" fill="#263238"/>
<path d="M75.4925 386.231C75.386 386.114 75.6379 385.707 76.1029 385.368C76.5679 385.029 77.0718 384.942 77.1202 385.078C77.1686 385.213 76.8586 385.523 76.4323 385.833C76.006 386.143 75.5991 386.337 75.4925 386.231Z" fill="#263238"/>
<path d="M76.3161 387.093C76.1998 386.996 76.4226 386.512 76.8974 386.124C77.3721 385.737 77.8662 385.514 77.9534 385.64C78.0406 385.766 77.7112 386.144 77.2752 386.541C76.8392 386.938 76.442 387.151 76.3161 387.093Z" fill="#263238"/>
<path d="M63.721 384.244C63.6435 384.244 63.4788 383.983 63.256 383.498C62.9898 382.887 62.6654 382.303 62.2871 381.755C61.9024 381.234 61.3971 380.815 60.8145 380.534C60.3591 380.33 60.0297 380.292 60.0297 380.214C60.0297 380.137 60.3785 380.02 60.9404 380.156C61.6631 380.361 62.2949 380.805 62.7328 381.415C63.1476 382.002 63.4529 382.658 63.6338 383.353C63.7598 383.876 63.7888 384.244 63.721 384.244Z" fill="#455A64"/>
<path d="M76.0254 384.671C76.0254 384.816 75.6959 385.029 75.2018 385.049C74.7077 385.068 74.3202 384.884 74.3493 384.729C74.3783 384.574 74.7465 384.506 75.1825 384.487C75.6184 384.467 75.9478 384.516 76.0254 384.671Z" fill="#263238"/>
<path d="M76.0253 383.789C76.0253 383.935 75.5409 383.935 75.0081 383.789C74.4752 383.644 74.0973 383.382 74.1458 383.237C74.1942 383.092 74.6593 383.101 75.1631 383.237C75.6669 383.373 76.0641 383.634 76.0253 383.789Z" fill="#263238"/>
<path d="M86.8764 214.338L65.3487 212.681L32.7373 210.036L36.3802 385.213L64.6996 384.845C64.6996 384.845 64.6996 382.907 64.6317 379.478L81.2378 384.022C81.2378 384.022 97.4175 329.359 102.93 306.93C107.532 288.241 86.8764 214.338 86.8764 214.338ZM64.3217 352.273C63.8954 311.833 63.4013 243.064 63.9923 234.655C63.9923 234.655 79.7651 295.198 79.9104 299.974C80.0073 302.861 71.2199 330.803 64.3217 352.273Z" fill="#455A64"/>
<path d="M64.8546 378.209C64.8546 378.364 58.5183 378.49 50.7094 378.49C42.9005 378.49 36.5546 378.364 36.5546 378.209C36.5546 378.054 42.8908 377.928 50.7094 377.928C58.528 377.928 64.8546 378.054 64.8546 378.209Z" fill="#455A64"/>
<path d="M64.6027 371.911C65.4885 372.121 66.3566 372.4 67.1992 372.744L73.6808 375.002L80.1624 377.269C81.079 377.531 81.968 377.881 82.817 378.315C81.8705 378.183 80.9392 377.96 80.0364 377.647C78.3506 377.152 76.0351 376.416 73.4967 375.535C70.9583 374.653 68.6524 373.781 67.0635 373.112C66.1916 372.828 65.3633 372.424 64.6027 371.911V371.911Z" fill="#455A64"/>
<path d="M90.5484 299.432C88.7969 299.84 87.008 300.067 85.21 300.11C83.4268 300.338 81.6249 300.38 79.8329 300.236C81.5834 299.82 83.3727 299.59 85.1713 299.548C86.9546 299.321 88.7569 299.282 90.5484 299.432V299.432Z" fill="#455A64"/>
<path d="M88.6979 302.61C87.3052 302.492 85.9339 302.192 84.6191 301.718C83.2507 301.42 81.928 300.941 80.6855 300.294C82.0822 300.4 83.4579 300.697 84.7741 301.176C86.9831 301.815 88.7464 302.455 88.6979 302.61Z" fill="#455A64"/>
<path d="M66.5985 212.904C66.7286 214.01 66.7772 215.124 66.7438 216.237C66.7438 218.3 66.7438 221.149 66.7438 224.298C66.7438 225.857 66.7438 227.349 66.6857 228.725C66.7211 229.964 66.4898 231.197 66.0075 232.339C65.6638 233.117 65.1145 233.787 64.4186 234.277C64.1813 234.473 63.8979 234.607 63.595 234.664C63.595 234.664 63.8663 234.49 64.3023 234.122C64.9141 233.597 65.3895 232.932 65.6877 232.184C66.0917 231.074 66.2728 229.895 66.2206 228.716C66.2206 227.33 66.2206 225.809 66.2206 224.278C66.2206 221.129 66.2981 218.281 66.3563 216.227C66.3531 215.115 66.4341 214.004 66.5985 212.904V212.904Z" fill="#455A64"/>
<path d="M50.3897 211.916C50.4001 212.058 50.4001 212.2 50.3897 212.342C50.3897 212.652 50.3897 213.069 50.3897 213.602C50.3897 214.725 50.3025 216.353 50.2346 218.446C50.099 222.66 49.9052 228.716 49.663 236.185C49.2077 251.164 48.7426 271.868 48.6264 294.723C48.5101 317.578 48.7717 338.321 49.072 353.29C49.2367 360.76 49.3627 366.854 49.4596 371.029C49.4596 373.112 49.5371 374.73 49.5661 375.874C49.5661 376.407 49.5661 376.843 49.5661 377.133C49.5766 377.275 49.5766 377.418 49.5661 377.559C49.5557 377.418 49.5557 377.275 49.5661 377.133C49.5661 376.833 49.5661 376.416 49.4983 375.883C49.4983 374.75 49.3918 373.132 49.3046 371.039C49.1399 366.854 48.9461 360.789 48.7523 353.3C48.3551 338.311 48.0451 317.607 48.1613 294.723C48.2776 271.839 48.8008 251.125 49.3433 236.176C49.6146 228.687 49.8665 222.612 50.0796 218.436C50.1862 216.363 50.2734 214.745 50.3315 213.592C50.3315 213.059 50.3897 212.623 50.409 212.332C50.3926 212.194 50.3861 212.055 50.3897 211.916V211.916Z" fill="#455A64"/>
<path d="M79.8232 216.324C79.8821 216.452 79.9307 216.585 79.9686 216.721C80.0558 217.012 80.1817 217.4 80.3367 217.903C80.6468 218.94 81.1409 220.471 81.6834 222.467C82.7976 226.449 84.2993 232.233 85.9754 239.431C87.6515 246.63 89.5117 255.214 91.4494 264.786C93.3871 274.358 95.4314 284.899 97.2625 296.021C97.495 297.417 97.7082 298.802 97.8922 300.187C97.8922 300.556 97.9601 300.933 97.9601 301.292L97.7857 302.319C97.6597 303.007 97.5628 303.695 97.4078 304.363C96.8556 307.057 96.2355 309.692 95.567 312.269C94.2494 317.423 92.8542 322.355 91.4785 327.044C88.7463 336.422 86.1111 344.813 83.873 351.856C81.635 358.9 79.7651 364.567 78.4475 368.481L76.9167 372.987L76.5001 374.159C76.464 374.294 76.4119 374.424 76.3451 374.546C76.3704 374.408 76.406 374.272 76.4517 374.14C76.5486 373.849 76.6648 373.461 76.8198 372.958L78.2634 368.423L83.5339 351.749C85.7235 344.696 88.32 336.296 91.0328 326.918C92.3892 322.229 93.7746 317.288 95.0923 312.143C95.7511 309.576 96.3711 306.95 96.9234 304.266C97.0784 303.598 97.1656 302.92 97.2819 302.241L97.4563 301.224C97.4563 300.895 97.4078 300.575 97.3884 300.255C97.2044 298.889 97.0009 297.504 96.7684 296.118C94.9276 285.006 92.893 274.465 90.9553 264.892C89.0176 255.32 87.264 246.668 85.6363 239.509C84.0087 232.349 82.5457 226.507 81.4897 222.515C80.9859 220.519 80.5208 218.979 80.2398 217.932L79.9201 216.741C79.8726 216.606 79.8401 216.466 79.8232 216.324V216.324Z" fill="#455A64"/>
<path d="M64.2345 348.717C64.3125 349.168 64.3418 349.626 64.3217 350.083C64.3217 351.052 64.3217 352.321 64.3702 353.823C64.3702 357.068 64.4864 361.38 64.5542 366.137C64.6221 370.894 64.8061 375.205 64.8933 378.451C64.8933 379.953 64.9708 381.212 64.9999 382.191C65.0437 382.645 65.0437 383.102 64.9999 383.557C64.893 383.112 64.8345 382.657 64.8255 382.2C64.748 381.319 64.6608 380.049 64.5639 378.47C64.3702 375.321 64.1861 370.962 64.0795 366.146C63.9729 361.331 63.9923 356.972 64.0795 353.823C64.0795 352.244 64.1473 350.916 64.1861 350.083C64.1664 349.627 64.1826 349.17 64.2345 348.717Z" fill="#455A64"/>
<path d="M86.8764 214.338L65.3487 212.681L32.7373 210.036L36.3802 385.213L64.6996 384.845C64.6996 384.845 64.6996 382.907 64.6317 379.478L81.2378 384.022C81.2378 384.022 97.4175 329.359 102.93 306.93C107.532 288.241 86.8764 214.338 86.8764 214.338ZM64.3217 352.273C63.8954 311.833 63.4013 243.064 63.9923 234.655C63.9923 234.655 79.7651 295.198 79.9104 299.974C80.0073 302.861 71.2199 330.803 64.3217 352.273Z" fill="#263238"/>
<path d="M64.8546 378.209C64.8546 378.364 58.5183 378.49 50.7094 378.49C42.9005 378.49 36.5546 378.364 36.5546 378.209C36.5546 378.054 42.8908 377.928 50.7094 377.928C58.528 377.928 64.8546 378.054 64.8546 378.209Z" fill="#455A64"/>
<path d="M64.6027 371.911C65.4885 372.121 66.3566 372.4 67.1992 372.744L73.6808 375.002L80.1624 377.269C81.079 377.531 81.968 377.881 82.817 378.315C81.8705 378.183 80.9392 377.96 80.0364 377.647C78.3506 377.152 76.0351 376.416 73.4967 375.535C70.9583 374.653 68.6524 373.781 67.0635 373.112C66.1916 372.828 65.3633 372.424 64.6027 371.911V371.911Z" fill="#455A64"/>
<path d="M90.5484 299.432C88.7969 299.84 87.008 300.067 85.21 300.11C83.4268 300.338 81.6249 300.38 79.8329 300.236C81.5834 299.82 83.3727 299.59 85.1713 299.548C86.9546 299.321 88.7569 299.282 90.5484 299.432V299.432Z" fill="#455A64"/>
<path d="M88.6979 302.61C87.3052 302.492 85.9339 302.192 84.6191 301.718C83.2507 301.42 81.928 300.941 80.6855 300.294C82.0822 300.4 83.4579 300.697 84.7741 301.176C86.9831 301.815 88.7464 302.455 88.6979 302.61Z" fill="#455A64"/>
<path d="M66.5985 212.904C66.7286 214.01 66.7772 215.124 66.7438 216.237C66.7438 218.3 66.7438 221.149 66.7438 224.298C66.7438 225.857 66.7438 227.349 66.6857 228.725C66.7211 229.964 66.4898 231.197 66.0075 232.339C65.6638 233.117 65.1145 233.787 64.4186 234.277C64.1813 234.473 63.8979 234.607 63.595 234.664C63.595 234.664 63.8663 234.49 64.3023 234.122C64.9141 233.597 65.3895 232.932 65.6877 232.184C66.0917 231.074 66.2728 229.895 66.2206 228.716C66.2206 227.33 66.2206 225.809 66.2206 224.278C66.2206 221.129 66.2981 218.281 66.3563 216.227C66.3531 215.115 66.4341 214.004 66.5985 212.904V212.904Z" fill="#455A64"/>
<path d="M50.3897 211.916C50.4001 212.058 50.4001 212.2 50.3897 212.342C50.3897 212.652 50.3897 213.069 50.3897 213.602C50.3897 214.725 50.3025 216.353 50.2346 218.446C50.099 222.66 49.9052 228.716 49.663 236.185C49.2077 251.164 48.7426 271.868 48.6264 294.723C48.5101 317.578 48.7717 338.321 49.072 353.29C49.2367 360.76 49.3627 366.854 49.4596 371.029C49.4596 373.112 49.5371 374.73 49.5661 375.874C49.5661 376.407 49.5661 376.843 49.5661 377.133C49.5766 377.275 49.5766 377.418 49.5661 377.559C49.5557 377.418 49.5557 377.275 49.5661 377.133C49.5661 376.833 49.5661 376.416 49.4983 375.883C49.4983 374.75 49.3918 373.132 49.3046 371.039C49.1399 366.854 48.9461 360.789 48.7523 353.3C48.3551 338.311 48.0451 317.607 48.1613 294.723C48.2776 271.839 48.8008 251.125 49.3433 236.176C49.6146 228.687 49.8665 222.612 50.0796 218.436C50.1862 216.363 50.2734 214.745 50.3315 213.592C50.3315 213.059 50.3897 212.623 50.409 212.332C50.3926 212.194 50.3861 212.055 50.3897 211.916V211.916Z" fill="#455A64"/>
<path d="M79.8232 216.324C79.8821 216.452 79.9307 216.585 79.9686 216.721C80.0558 217.012 80.1817 217.4 80.3367 217.903C80.6468 218.94 81.1409 220.471 81.6834 222.467C82.7976 226.449 84.2993 232.233 85.9754 239.431C87.6515 246.63 89.5117 255.214 91.4494 264.786C93.3871 274.358 95.4314 284.899 97.2625 296.021C97.495 297.417 97.7082 298.802 97.8922 300.187C97.8922 300.556 97.9601 300.933 97.9601 301.292L97.7857 302.319C97.6597 303.007 97.5628 303.695 97.4078 304.363C96.8556 307.057 96.2355 309.692 95.567 312.269C94.2494 317.423 92.8542 322.355 91.4785 327.044C88.7463 336.422 86.1111 344.813 83.873 351.856C81.635 358.9 79.7651 364.567 78.4475 368.481L76.9167 372.987L76.5001 374.159C76.464 374.294 76.4119 374.424 76.3451 374.546C76.3704 374.408 76.406 374.272 76.4517 374.14C76.5486 373.849 76.6648 373.461 76.8198 372.958L78.2634 368.423L83.5339 351.749C85.7235 344.696 88.32 336.296 91.0328 326.918C92.3892 322.229 93.7746 317.288 95.0923 312.143C95.7511 309.576 96.3711 306.95 96.9234 304.266C97.0784 303.598 97.1656 302.92 97.2819 302.241L97.4563 301.224C97.4563 300.895 97.4078 300.575 97.3884 300.255C97.2044 298.889 97.0009 297.504 96.7684 296.118C94.9276 285.006 92.893 274.465 90.9553 264.892C89.0176 255.32 87.264 246.668 85.6363 239.509C84.0087 232.349 82.5457 226.507 81.4897 222.515C80.9859 220.519 80.5208 218.979 80.2398 217.932L79.9201 216.741C79.8726 216.606 79.8401 216.466 79.8232 216.324V216.324Z" fill="#455A64"/>
<path d="M64.2345 348.717C64.3125 349.168 64.3418 349.626 64.3217 350.083C64.3217 351.052 64.3217 352.321 64.3702 353.823C64.3702 357.068 64.4864 361.38 64.5542 366.137C64.6221 370.894 64.8061 375.205 64.8933 378.451C64.8933 379.953 64.9708 381.212 64.9999 382.191C65.0437 382.645 65.0437 383.102 64.9999 383.557C64.893 383.112 64.8345 382.657 64.8255 382.2C64.748 381.319 64.6608 380.049 64.5639 378.47C64.3702 375.321 64.1861 370.962 64.0795 366.146C63.9729 361.331 63.9923 356.972 64.0795 353.823C64.0795 352.244 64.1473 350.916 64.1861 350.083C64.1664 349.627 64.1826 349.17 64.2345 348.717Z" fill="#455A64"/>
<path d="M49.789 130.261L66.2594 131.482C66.4822 129.544 66.8019 122.171 66.8019 122.171C66.8019 122.171 73.6711 121.542 74.1749 114.74C74.6787 107.939 74.4655 92.234 74.4655 92.234C70.7 90.3308 66.4943 89.4683 62.2836 89.7357C58.0729 90.0032 54.0101 91.3908 50.5156 93.7551L49.4596 94.4721L49.789 130.261Z" fill="#E5BAAB"/>
<path d="M72.1209 103.831C71.9904 103.694 71.903 103.521 71.8697 103.335C71.8363 103.148 71.8583 102.956 71.9331 102.782C72.0078 102.608 72.132 102.459 72.2903 102.355C72.4485 102.251 72.6338 102.195 72.8233 102.195C73.0128 102.195 73.1982 102.251 73.3564 102.355C73.5147 102.459 73.6388 102.608 73.7136 102.782C73.7884 102.956 73.8104 103.148 73.777 103.335C73.7436 103.521 73.6563 103.694 73.5258 103.831C73.4352 103.927 73.3263 104.002 73.2055 104.054C73.0848 104.106 72.9547 104.133 72.8233 104.133C72.6919 104.133 72.5619 104.106 72.4411 104.054C72.3204 104.002 72.2114 103.927 72.1209 103.831V103.831Z" fill="#263238"/>
<path d="M73.8648 102.378C73.7486 102.494 73.1188 101.942 72.179 101.874C71.2392 101.806 70.532 102.252 70.4351 102.126C70.3382 102 70.5029 101.865 70.8226 101.661C71.2349 101.39 71.7267 101.267 72.2178 101.312C72.7126 101.342 73.1833 101.536 73.5548 101.865C73.8358 102.107 73.923 102.31 73.8648 102.378Z" fill="#263238"/>
<path d="M63.0137 102.533C63.1672 102.645 63.2843 102.8 63.3505 102.978C63.4166 103.156 63.429 103.35 63.386 103.535C63.343 103.72 63.2465 103.888 63.1086 104.019C62.9707 104.149 62.7974 104.237 62.6103 104.27C62.4232 104.303 62.2305 104.28 62.0562 104.204C61.882 104.128 61.7338 104.003 61.6302 103.844C61.5266 103.685 61.4721 103.498 61.4735 103.308C61.4749 103.118 61.5321 102.933 61.638 102.775C61.7107 102.667 61.8046 102.574 61.9139 102.503C62.0232 102.432 62.1458 102.384 62.2743 102.361C62.4028 102.339 62.5345 102.342 62.6616 102.372C62.7886 102.401 62.9084 102.456 63.0137 102.533V102.533Z" fill="#263238"/>
<path d="M63.6338 102.581C63.5175 102.688 62.8878 102.136 61.948 102.068C61.0082 102 60.301 102.455 60.2041 102.33C60.1072 102.204 60.2719 102.058 60.5819 101.855C61.002 101.594 61.4935 101.472 61.9868 101.506C62.4801 101.542 62.9489 101.736 63.3238 102.058C63.6047 102.31 63.6919 102.533 63.6338 102.581Z" fill="#263238"/>
<path d="M66.9182 110.545C67.4138 110.392 67.9302 110.317 68.449 110.323C68.7009 110.323 68.9043 110.274 68.9334 110.138C68.9579 109.888 68.9109 109.636 68.7977 109.412L68.1777 107.474C67.5811 105.817 67.1431 104.108 66.8698 102.368C67.6205 103.959 68.2206 105.616 68.6621 107.319L69.2434 109.257C69.3833 109.577 69.4106 109.936 69.3209 110.274C69.2802 110.365 69.2186 110.445 69.1411 110.507C69.0637 110.569 68.9726 110.612 68.8753 110.633C68.737 110.65 68.5969 110.65 68.4587 110.633C67.9438 110.686 67.4237 110.657 66.9182 110.545V110.545Z" fill="#263238"/>
<path d="M63.8082 111.388C62.8393 110.749 66.4047 112.987 68.323 113.016C67.9746 113.488 67.476 113.828 66.9091 113.979C66.3423 114.13 65.7407 114.085 65.2033 113.849C63.2075 112.968 63.8082 111.388 63.8082 111.388Z" fill="white"/>
<path d="M66.7632 122.075C63.6173 121.942 60.582 120.876 58.0436 119.013C58.0436 119.013 59.8359 124.041 66.6663 123.857L66.7632 122.075Z" fill="#D78776"/>
<path d="M50.7578 100.508C50.6028 100.45 45.7004 99.8105 46.1655 105.604C46.6305 111.398 52.3274 109.005 52.3177 108.84C52.308 108.675 50.7578 100.508 50.7578 100.508Z" fill="#E5BAAB"/>
<path d="M50.3316 106.951C50.3316 106.951 50.2444 107.028 50.0797 107.125C49.8464 107.245 49.5767 107.273 49.324 107.203C48.9317 106.994 48.6015 106.685 48.3668 106.307C48.132 105.929 48.001 105.496 47.9869 105.052C47.9335 104.557 47.9932 104.057 48.1613 103.589C48.2001 103.404 48.2828 103.23 48.4025 103.084C48.5222 102.937 48.6754 102.821 48.8492 102.746C48.9636 102.709 49.0872 102.712 49.1998 102.754C49.3123 102.797 49.4073 102.876 49.4693 102.979C49.5565 103.134 49.5371 103.25 49.5662 103.26C49.5952 103.269 49.6824 103.153 49.5662 102.921C49.5257 102.778 49.4366 102.655 49.3143 102.572C49.1424 102.47 48.9386 102.435 48.7426 102.475C48.5119 102.54 48.3017 102.664 48.1321 102.833C47.9625 103.003 47.8392 103.213 47.7738 103.444C47.5649 103.963 47.4883 104.525 47.551 105.081C47.5617 105.599 47.7258 106.101 48.0224 106.526C48.3191 106.95 48.735 107.277 49.2174 107.464C49.3762 107.498 49.5404 107.495 49.698 107.456C49.8557 107.418 50.0026 107.345 50.1281 107.242C50.3316 107.096 50.3606 106.961 50.3316 106.951Z" fill="#D78776"/>
<path d="M74.9015 89.783C75.2937 89.7725 75.6781 89.6719 76.0252 89.4891C76.3723 89.3063 76.6726 89.0461 76.9031 88.7287C77.1335 88.4112 77.2878 88.045 77.3541 87.6584C77.4204 87.2718 77.3969 86.8751 77.2854 86.499C77.1739 86.1229 76.9774 85.7775 76.711 85.4895C76.4447 85.2015 76.1157 84.9786 75.7494 84.8381C75.3832 84.6976 74.9895 84.6432 74.5989 84.6791C74.2083 84.715 73.8312 84.8403 73.4967 85.0453C74.3069 84.3727 74.9671 83.5377 75.4344 82.5941C75.6604 82.1182 75.7352 81.5845 75.6486 81.0648C75.562 80.5451 75.3181 80.0644 74.95 79.6876C74.5236 79.4055 74.0304 79.2408 73.5201 79.2102C73.0098 79.1796 72.5005 79.2841 72.0434 79.5132C70.5999 80.1333 69.4566 81.354 67.9743 81.8675C66.492 82.381 64.8352 82.1291 63.2463 82.1969C61.4634 82.2287 59.7366 82.8258 58.3149 83.9021C57.1034 84.8539 56.3193 86.2478 56.135 87.7775C55.9446 87.516 55.734 87.2698 55.5052 87.0411C54.7517 86.1418 53.7352 85.5014 52.5987 85.21C52.5309 85.336 53.8582 86.0723 55.1274 87.3899C55.4729 87.7205 55.7965 88.0733 56.0962 88.446C53.8873 88.1747 51.4554 88.1553 49.7115 89.5311C49.005 90.1608 48.4467 90.9391 48.0765 91.8102C47.7063 92.6812 47.5335 93.6233 47.5704 94.5691C47.5704 96.4486 48.3455 98.241 48.8977 100.043C49.0313 100.554 49.2615 101.034 49.5759 101.458L50.4091 106.302L53.4416 106.244L53.2478 96.0805C53.2478 96.0805 52.9378 91.7982 56.6194 92.2051C60.301 92.612 65.339 96.7296 72.4891 95.6832C73.6623 95.6178 74.8053 95.2865 75.8316 94.7144C76.3284 94.3997 76.7322 93.9581 77.0013 93.4353C77.2704 92.9124 77.3951 92.3272 77.3624 91.74C77.2919 91.1558 76.9941 90.6228 76.5335 90.2566C76.073 89.8903 75.4866 89.7201 74.9015 89.783V89.783Z" fill="#263238"/>
<path d="M136.52 139.94L136.966 136.859C137.421 135.174 137.707 133.447 137.818 131.705C137.891 130.839 137.813 129.967 137.586 129.128C137.357 128.072 136.979 127.054 136.462 126.105C135.9 125.282 136.636 124.167 137.431 124.506C138.225 124.846 139.882 127.035 140.415 130.194C140.948 133.352 143.438 128.973 144.368 127.394C145.298 125.814 148.427 121.057 149.144 120.96C150.191 120.815 150.539 121.929 149.561 123.47C148.582 125.01 146.005 129.903 146.867 130.349C147.513 130.245 148.173 130.278 148.805 130.445C148.907 130.475 148.997 130.536 149.063 130.619C149.129 130.703 149.168 130.804 149.173 130.911C149.17 131.399 149.222 131.887 149.328 132.364C149.328 132.364 150.598 132.073 150.859 132.625C151.036 133.193 151.118 133.785 151.101 134.379C151.101 134.379 152.07 134.05 152.535 134.379C153.504 135.164 152.264 136.51 152.264 136.51C149.411 139.913 146.347 143.133 143.089 146.151L136.414 139.717" fill="#E5BAAB"/>
<path d="M148.941 132.577C148.656 133.176 148.273 133.723 147.807 134.195C147.42 134.66 146.935 135.164 146.364 135.774C146.066 136.091 145.741 136.383 145.395 136.646C145.181 136.816 144.923 136.921 144.652 136.948C144.381 136.976 144.107 136.925 143.864 136.801C143.731 136.723 143.619 136.615 143.537 136.485C143.454 136.356 143.404 136.208 143.389 136.055C143.37 135.782 143.43 135.509 143.564 135.27C143.802 134.911 144.061 134.564 144.339 134.234C144.833 133.614 145.24 133.032 145.579 132.528C145.904 131.959 146.277 131.418 146.693 130.911C146.532 131.555 146.256 132.165 145.879 132.713C145.527 133.335 145.139 133.937 144.717 134.515C144.459 134.824 144.22 135.147 144 135.483C143.825 135.803 143.835 136.2 144.116 136.346C144.274 136.412 144.447 136.436 144.617 136.414C144.788 136.392 144.949 136.325 145.085 136.22C145.406 135.976 145.711 135.711 145.995 135.425C146.577 134.883 147.081 134.369 147.497 133.933C147.931 133.433 148.415 132.979 148.941 132.577Z" fill="#D78776"/>
<path d="M150.636 134.563C150.351 135.08 149.985 135.548 149.551 135.948C149.114 136.417 148.637 136.848 148.127 137.237C147.821 137.469 147.497 137.676 147.158 137.857C146.957 137.958 146.741 138.027 146.519 138.06C146.384 138.082 146.246 138.076 146.114 138.041C145.982 138.005 145.859 137.943 145.753 137.857C145.574 137.672 145.461 137.433 145.432 137.178C145.402 136.922 145.457 136.664 145.589 136.443C145.785 136.097 146.015 135.773 146.276 135.474C146.703 134.98 147.1 134.505 147.497 134.03C148.204 133.216 148.669 132.742 148.728 132.78C148.472 133.312 148.146 133.808 147.759 134.253L146.674 135.793C146.445 136.068 146.237 136.359 146.054 136.665C145.979 136.789 145.944 136.933 145.955 137.077C145.965 137.221 146.02 137.358 146.112 137.469C146.286 137.634 146.654 137.566 146.974 137.411C147.292 137.247 147.599 137.062 147.894 136.859C148.398 136.5 148.88 136.112 149.338 135.697C149.723 135.267 150.159 134.887 150.636 134.563V134.563Z" fill="#D78776"/>
<path d="M151.034 137.334C151.082 137.334 151.034 137.77 150.578 138.303C150.44 138.468 150.27 138.603 150.079 138.701C149.888 138.8 149.679 138.858 149.464 138.874C149.187 138.877 148.917 138.784 148.699 138.613C148.578 138.512 148.482 138.386 148.417 138.244C148.352 138.101 148.319 137.946 148.321 137.789C148.398 137.295 148.597 136.829 148.902 136.433C149.106 136.113 149.33 135.806 149.571 135.512C149.987 135.009 150.288 134.747 150.346 134.796C150.404 134.844 150.191 135.173 149.861 135.764C149.667 136.103 149.474 136.413 149.299 136.733C149.066 137.075 148.904 137.461 148.825 137.867C148.832 138.031 148.903 138.187 149.022 138.3C149.141 138.414 149.299 138.477 149.464 138.477C149.786 138.467 150.092 138.339 150.326 138.119C150.762 137.654 150.966 137.295 151.034 137.334Z" fill="#D78776"/>
<path d="M135.794 135.939C135.794 135.939 110.381 160.945 106.815 161.129C102.746 161.323 90.2286 143.573 90.2286 143.573C82.2163 131.211 71.6462 129.215 67.7902 128.905V127.374L48.8492 125.824C48.8492 125.824 48.8492 127.452 48.8492 128.876H40.4881C40.4881 128.876 25.4709 128.188 23.2232 148.359L34.0162 156.895L38.4438 173.365C39.9843 179.101 34.4812 188.237 31.8556 203.031C31.4507 205.498 31.8623 208.029 33.0279 210.24L87.7193 216.527L84.8128 174.712L83.9311 165.024C88.4363 171.176 96.5261 179.876 106.437 179.682C123.344 179.362 146.829 143.835 146.829 143.835L135.794 135.939Z" fill="#E0E0E0"/>
<path d="M61.4152 127.103C61.5091 127.963 61.5091 128.83 61.4152 129.69C61.2739 131.842 60.9825 133.982 60.5432 136.094L60.4754 136.414L60.1847 136.259C59.5259 135.91 58.838 135.542 58.1405 135.135C55.4277 133.536 53.1122 131.889 51.3586 130.746C50.4119 130.17 49.4996 129.539 48.6264 128.857C48.9164 128.941 49.1934 129.065 49.4499 129.225C49.9537 129.506 50.6804 129.913 51.5523 130.445C53.3156 131.511 55.6602 133.119 58.3343 134.699C59.0124 135.096 59.6906 135.474 60.3494 135.823L59.991 135.987C60.5529 133.488 60.8242 131.25 61.0276 129.661C61.1049 128.801 61.2343 127.947 61.4152 127.103V127.103Z" fill="#FAFAFA"/>
<path d="M67.8483 129.012C67.7266 129.844 67.5453 130.666 67.3058 131.472C67.1217 132.238 66.9279 133.149 66.5985 134.137C66.427 134.659 66.2232 135.17 65.9882 135.668C65.9204 135.846 65.7984 135.998 65.6394 136.103C65.529 136.171 65.399 136.199 65.2705 136.184C65.142 136.168 65.0227 136.109 64.9321 136.016C64.7506 135.749 64.604 135.459 64.4961 135.154C63.5273 132.955 62.7619 130.959 62.2 129.496C61.8466 128.73 61.5769 127.927 61.3958 127.103C61.8484 127.815 62.2281 128.572 62.5294 129.36C63.1785 130.785 64.0408 132.761 64.9612 134.96C65.0505 135.205 65.1607 135.442 65.2906 135.668C65.339 135.668 65.2906 135.668 65.3778 135.668C65.4507 135.608 65.5074 135.532 65.5425 135.445C65.7743 134.968 65.9813 134.48 66.1625 133.982C66.5016 133.013 66.7342 132.122 66.957 131.376C67.1497 130.552 67.4493 129.757 67.8483 129.012V129.012Z" fill="#FAFAFA"/>
<path d="M64.3217 196.676C64.2754 196.449 64.2495 196.219 64.2442 195.988C64.2442 195.484 64.2055 194.838 64.128 194.05C64.0505 192.268 63.9342 189.797 63.7986 186.764C63.566 180.564 63.2366 172.086 62.8878 162.727C62.5391 153.368 62.3162 144.891 62.1224 138.69C62.0546 135.648 61.9965 133.178 61.9481 131.395C61.9481 130.581 61.9481 129.922 61.9481 129.457C61.923 129.225 61.923 128.991 61.9481 128.76C61.9927 128.986 62.0154 129.217 62.0159 129.448C62.0159 129.951 62.0934 130.61 62.1418 131.385C62.2193 133.158 62.3356 135.629 62.4712 138.661C62.7037 144.862 63.0235 153.339 63.3819 162.698C63.7404 172.057 63.9439 180.535 64.1473 186.745C64.2152 189.778 64.2733 192.248 64.3217 194.031C64.3217 194.854 64.3217 195.513 64.3217 196.017C64.3446 196.236 64.3446 196.457 64.3217 196.676Z" fill="#F5F5F5"/>
<path d="M60.8726 133.226L62.4615 137.605L63.8276 132.906L61.7058 128.198L60.8726 133.226Z" fill="#576E97"/>
<path d="M62.7522 136.297L61.7058 185.592L69.1465 201.152L72.0822 183.645L62.7522 136.297Z" fill="#576E97"/>
<path d="M107.087 167.223C107.087 167.223 107.087 167.368 107.087 167.61L107.028 167.978L106.864 167.61C106.489 166.63 106.273 165.597 106.224 164.549C106.064 163.38 106.204 162.19 106.631 161.09C106.777 161.09 106.631 162.64 106.728 164.52C106.806 165.857 107.019 167 107.087 167.552H106.864C106.951 167.291 107.048 167.223 107.087 167.223Z" fill="#FAFAFA"/>
<path d="M109.266 167.058C108.544 166.3 108.007 165.385 107.697 164.384C107.231 163.46 106.976 162.444 106.951 161.41C107.444 162.311 107.847 163.258 108.152 164.239C108.614 165.14 108.987 166.084 109.266 167.058V167.058Z" fill="#FAFAFA"/>
<path d="M145.24 146.189C143.144 145.081 141.131 143.824 139.214 142.43C137.205 141.176 135.288 139.781 133.478 138.254C135.572 139.372 137.586 140.634 139.504 142.033C141.512 143.28 143.429 144.669 145.24 146.189Z" fill="#FAFAFA"/>
<path d="M39.6064 154.105C39.6064 154.105 35.576 182.201 37.4847 183.771C48.0257 192.636 62.6747 197.286 67.9064 198.749C68.6718 198.565 69.5632 198.323 70.5902 197.993C71.4804 197.711 72.3159 197.278 73.0607 196.715C74.0118 196.047 74.866 195.252 75.5991 194.351C75.7098 194.157 75.8778 194.003 76.08 193.909C76.2821 193.816 76.5084 193.787 76.7275 193.827C76.9466 193.868 77.1478 193.975 77.3032 194.135C77.4586 194.295 77.5605 194.499 77.5949 194.719C77.6434 195.688 76.0932 198.178 73.177 199.999C73.177 199.999 79.8911 210.802 82.0322 211.78C84.1734 212.759 90.2965 215.51 89.2598 216.033C88.2232 216.557 80.7727 214.396 80.7727 214.396L65.6587 210.356C65.6587 210.356 15.6662 202.518 18.9894 179.585C21.0336 165.527 23.262 152.865 24.0661 149.658L39.6064 154.105Z" fill="#E5BAAB"/>
<path d="M23.2232 148.35L18.7859 178.975C17.7493 188.402 24.0661 195.891 32.5629 200.106C45.497 206.51 64.6996 211.083 64.5349 211.053C64.3702 211.024 65.8331 197.383 65.8331 197.383C65.8331 197.383 38.9089 185.757 38.066 180.719C37.2231 175.681 41.486 154.754 41.486 154.754L23.2232 148.35Z" fill="#E0E0E0"/>
<path d="M64.4961 211.054C64.486 210.973 64.486 210.892 64.4961 210.811C64.4961 210.618 64.4961 210.385 64.5446 210.104C64.593 209.436 64.6608 208.535 64.7577 207.382C64.9612 204.979 65.2615 201.569 65.62 197.373L65.7265 197.548L52.1627 190.989L48.2873 189.051C46.9794 188.353 45.6617 187.588 44.3538 186.745C43.0267 185.889 41.7521 184.954 40.5365 183.945C39.9262 183.432 39.3158 182.889 38.7345 182.318C38.4067 182.03 38.1427 181.677 37.9594 181.281C37.8567 181.089 37.7817 180.883 37.7366 180.67C37.673 180.468 37.6276 180.261 37.6009 180.05C37.1649 176.698 38.0563 173.54 38.5698 170.527C39.0833 167.514 39.5968 164.578 40.0812 161.807C41.05 156.246 41.9317 151.247 42.668 147.022C43.0656 145.151 43.2926 143.248 43.3462 141.335C43.3649 139.896 43.0672 138.471 42.4742 137.16C42.0939 136.332 41.5539 135.588 40.8853 134.97C40.4203 134.553 40.1393 134.389 40.149 134.36C40.4372 134.505 40.7072 134.684 40.9531 134.892C41.6645 135.493 42.2421 136.235 42.6486 137.072C43.2845 138.404 43.6155 139.86 43.6175 141.335C43.5959 143.265 43.3915 145.189 43.0071 147.081C42.2998 151.314 41.4569 156.323 40.5268 161.894C40.0521 164.675 39.558 167.601 39.0445 170.614C38.9186 171.37 38.7829 172.135 38.6473 172.91C38.5116 173.685 38.3663 174.441 38.2597 175.216C38.005 176.782 37.9626 178.376 38.1338 179.954C38.1645 180.146 38.2065 180.337 38.2597 180.525C38.2979 180.711 38.3631 180.891 38.4535 181.058C38.6131 181.4 38.8444 181.704 39.1317 181.949C39.7033 182.511 40.2943 183.044 40.895 183.548C42.0943 184.547 43.3529 185.472 44.6638 186.319C45.9524 187.162 47.2506 187.917 48.5392 188.615L52.4146 190.553L65.8719 197.257L65.9785 197.315V197.432C65.5425 201.627 65.1937 205.027 64.9515 207.43C64.8158 208.573 64.7189 209.484 64.6414 210.143C64.6027 210.427 64.5736 210.66 64.5542 210.84C64.5418 210.913 64.5223 210.985 64.4961 211.054V211.054Z" fill="#FAFAFA"/>
<path d="M61.9965 195.513C62.0252 196.215 61.9699 196.917 61.8318 197.606C61.6671 198.885 61.3958 200.648 61.0374 202.586C60.6789 204.523 60.272 206.267 59.9426 207.517C59.8096 208.206 59.5848 208.874 59.274 209.503C59.3078 208.803 59.415 208.108 59.5938 207.43C59.878 205.97 60.2009 204.323 60.5626 202.489C60.9016 200.137 61.3805 197.808 61.9965 195.513V195.513Z" fill="#FAFAFA"/>
<path d="M64.4961 211.054C64.3348 211.053 64.1746 211.027 64.0214 210.976L62.694 210.656L57.8498 209.377C53.7516 208.273 48.0548 206.82 41.951 204.582C39.0787 203.531 36.2819 202.285 33.5802 200.852C31.3731 199.677 29.2667 198.323 27.2827 196.802C25.944 195.777 24.6812 194.657 23.5042 193.45C23.0876 193.023 22.7872 192.684 22.5353 192.481C22.42 192.367 22.3221 192.236 22.2447 192.093C22.2447 192.093 22.7291 192.549 23.6011 193.353C24.8294 194.496 26.1234 195.567 27.4765 196.56C29.48 198.001 31.5846 199.296 33.774 200.435C36.4689 201.835 39.2521 203.059 42.106 204.097C48.171 206.326 53.8582 207.827 57.9273 209.029L62.7715 210.453L64.0795 210.87C64.2257 210.913 64.3657 210.975 64.4961 211.054V211.054Z" fill="#FAFAFA"/>
<path d="M64.8255 198.788C64.8312 198.961 64.7853 199.132 64.6935 199.279C64.6017 199.426 64.4682 199.542 64.31 199.613C64.1518 199.684 63.9762 199.706 63.8055 199.676C63.6347 199.647 63.4767 199.567 63.3514 199.447C63.2262 199.327 63.1395 199.173 63.1023 199.004C63.0652 198.835 63.0793 198.658 63.1428 198.497C63.2064 198.336 63.3165 198.197 63.4592 198.099C63.6019 198.001 63.7706 197.947 63.9438 197.945C64.1718 197.942 64.3917 198.029 64.5565 198.187C64.7213 198.344 64.8179 198.56 64.8255 198.788Z" fill="#FAFAFA"/>
</svg>
